<svg xmlns="http://www.w3.org/2000/svg" fill="none" viewBox="0 0 64 63"><path fill="#BBBEAC" fill-rule="evenodd" d="M37.017.697v.04h-.11q-.183.001-.573.17a1 1 0 0 1-.214.076c-.023 0-.041.016-.041.036s-.057.06-.126.088a.8.8 0 0 0-.174.097 4 4 0 0 1-.252.186c-.21.148-.317.23-.409.318-.03.028-.065.05-.078.05-.014 0-.106.079-.205.174-.099.096-.303.284-.455.419-.37.33-3.443 3.39-3.443 3.428 0 .041-.372.39-.417.39-.02 0-.177-.046-.35-.101-.854-.272-1.88-.447-2.926-.497l-.53-.026-.409.048c-.513.06-.932.122-1.143.169-.588.13-.928.22-1.142.303a11 11 0 0 1-.408.15c-.09.03-.262.105-.382.167s-.244.113-.276.113h-.056v.082h-.164v.081h-.122V6.7c0 .023-.02.04-.043.04a.2.2 0 0 0-.091.042 8 8 0 0 1-.356.24 5 5 0 0 0-.408.29 4 4 0 0 1-.245.199c-.156.118-1.143 1.112-1.143 1.152a.6.6 0 0 1-.101.144.5.5 0 0 0-.103.16c0 .023-.036.069-.081.101-.045.033-.082.083-.082.111 0 .029-.018.053-.04.053h-.041v.122h-.041c-.023 0-.041.024-.041.054s-.032.09-.071.134c-.088.1-.155.214-.297.506-.213.438-.28.594-.308.715a.6.6 0 0 1-.059.163c-.035.049-.072.2-.13.53l-.043.246.001.49c0 .508.03.84.088.98.018.045.075.21.126.367.102.316.345.814.458.937.04.043.072.103.072.132s.014.054.031.054.076.073.132.163.115.164.132.164.031.019.031.042c0 .05.546.596.834.835l.28.235c.045.04.095.072.11.072a.6.6 0 0 1 .147.102c.065.056.142.102.17.102s.05.018.05.04v.041h.123v.041c0 .023.024.041.054.041s.093.037.14.082c.049.045.117.081.151.081h.063v.082h.058c.056 0 .391.16.432.207.011.013.103.056.204.095.101.04.294.124.428.187.135.064.383.156.552.205.168.05.337.107.376.127.04.02.099.037.133.037h.062v.081h.321l.026.041c.014.022.06.04.104.04h.08v.074l.152.026c.084.015.227.037.317.05.09.012.18.039.202.06.02.02.064.036.094.036.075 0 .173.101.173.178 0 .034.018.073.04.087l.041.025v.24h.082v.567l.04.026.042.025v1.583l-.041.025-.04.025v.291l-.093.27c-.05.15-.105.277-.122.285s-.03.049-.03.092a.4.4 0 0 1-.04.15 27 27 0 0 0-.543 1.235 2 2 0 0 1-.075.172.4.4 0 0 0-.037.154v.082h-.081v.245h-.082v.326h-.081v.245h-.081v.404l-.036.021-.034.022-.033.4c-.039.467-.039.582.007 2.011l.034 1.082-.03.552c-.046.847-.097 1.458-.153 1.817l-.05.326.005.592a18 18 0 0 0 .06 1.368l.013.204.089.285.09.284-.01.167a.6.6 0 0 0 .02.213l.029.046.001.697.002.697h.066l.002.233.002.233-.038.07-.037.071.04.026.042.025v.24h.081v.245h.081v.122h.082v.134l.076.066c.042.036.109.13.149.209s.11.174.154.213l.08.07-.021.083-.021.082.087.111c.049.062.125.186.17.276l.082.164.078.015.078.015.195.2.194.2h.205l.025.04.025.041h.63l.059.082.059.082h.251l.048.048.048.048.073-.083.072-.084.163-.027c.213-.035.249-.035.483-.01l.197.022.053.044.054.044.105-.048.105-.048.144.11.145.11-.003.254c-.001.139-.017.39-.034.559l-.032.306.053.388.079.572c.013.1.04.22.06.265a1.2 1.2 0 0 1 .057.225l.046.285.023.143-.078.124-.078.124-.2.098c-.11.053-.245.117-.302.141a.5.5 0 0 0-.122.068 9 9 0 0 1-.556.299c-.295.15-.574.31-.62.353a.4.4 0 0 1-.11.08c-.014 0-.112.087-.218.193a3 3 0 0 1-.257.235 7 7 0 0 0-.818.6c-.252.236-.319.288-.461.36a1.3 1.3 0 0 0-.24.173c-.066.062-.142.113-.17.113-.027 0-.074.029-.103.064-.03.035-.146.112-.26.17l-.207.106-.408.027-.408.027-.19.088c-.33.155-.524.383-.524.617v.124l.072.09c.039.049.183.202.32.34l.249.252.026.106c.015.058.05.13.079.16s.077.155.108.278c.03.124.097.32.149.438l.093.212.145.145c.079.08.162.144.184.144s.072.055.112.123c.04.067.087.122.104.122h.032v.2l.041.025.04.025v.235l.042.026c.022.014.04.06.04.104v.08h.082v.126l.1.1c.055.055.12.1.143.1.024 0 .043.018.043.04s.023.042.052.042h.053l.111.214a1 1 0 0 1 .11.266c0 .028.019.05.041.05s.04.022.04.048c0 .074.26.606.296.606.017 0 .031.037.031.081v.082h.082v.164h.04c.023 0 .042.02.042.044a.4.4 0 0 0 .075.153c.041.06.087.154.1.208l.025.1-.064.135-.064.135h-.104l-.073.112a.6.6 0 0 1-.293.27c-.168.087-.184.086-.361-.035l-.15-.102h-.371l-.145.051c-.145.052-.276.154-.6.47-.097.095-.192.173-.21.173s-.06.037-.091.082l-.06.082h-.145v.081h-.163v.041c0 .023-.024.041-.053.041-.03 0-.09.032-.135.071-.08.07-.126.1-.42.264a2 2 0 0 0-.28.2.6.6 0 0 1-.17.118c-.02 0-.165.124-.324.276-.376.36-.633.585-.724.635a1.4 1.4 0 0 0-.201.167c-.071.07-.172.154-.224.188-.09.057-.303.24-.503.43-.048.046-.18.146-.292.223a3 3 0 0 0-.297.234c-.052.05-.11.093-.13.093s-.06.024-.09.053c-.03.03-.155.128-.278.22-.21.155-.776.691-.776.734 0 .01-.131.142-.292.292l-.444.416a7 7 0 0 1-.24.214l-.086.072h-.366v.081h-.163v.081h-.099c-.112 0-.45.137-.531.215a1.4 1.4 0 0 1-.144.112 4 4 0 0 0-.435.358.4.4 0 0 1-.12.092c-.013 0-.124.103-.246.23l-.22.23v.111h-.082v.08c0 .043-.015.088-.033.099s-.058.113-.09.227c-.03.114-.07.207-.089.207h-.033v.245h-.082v.061a.4.4 0 0 1-.037.133c-.053.1-.15.329-.222.52-.248.67-.326.888-.392 1.103-.04.134-.104.327-.14.428a1.2 1.2 0 0 0-.065.276l-.001.092h-.082v.245h-.081v.286h-.081v.408h-.082v.245h-.082v.082a.4.4 0 0 1-.037.153 5 5 0 0 0-.208.476c0 .05-.438.744-.54.858-.04.044-.072.103-.072.133s-.018.054-.04.054a.04.04 0 0 0-.042.04c0 .021-.1.144-.224.271s-.225.247-.225.265-.04.075-.091.126-.238.278-.417.502c-.395.497-.408.51-.489.51h-.064v.082h-.133l-.074.086c-.04.047-.103.172-.138.277a4 4 0 0 1-.247.514c-.1.176-.183.336-.183.355s-.018.034-.04.034-.042.024-.042.053c0 .03-.036.093-.081.142l-.082.087v.167h-.081v.094c0 .051-.017.111-.037.132s-.048.131-.06.244l-.047.408c-.013.112-.04.24-.06.286-.02.044-.046.21-.058.367s-.041.497-.064.755c-.024.259-.06.874-.082 1.368a15 15 0 0 1-.081 1.143c-.023.135-.058.54-.077.902l-.035.657-.26.527c-.143.29-.274.534-.291.541-.018.008-.032.049-.032.092v.078h-.08v.082c0 .045-.014.082-.031.082s-.052.06-.078.132l-.239.664c-.105.292-.213.59-.238.663-.026.073-.06.133-.077.133s-.031.023-.03.051c0 .065-.337.74-.378.759-.017.007-.031.04-.031.071v.058h-.081v.163h-.082v.062a.4.4 0 0 1-.037.133c-.02.039-.059.153-.085.254l-.091.348c-.05.191-.13.427-.326.96-.079.212-.186.521-.238.685-.053.164-.11.308-.129.32-.018.01-.033.063-.033.117v.097l-.041.025c-.022.014-.04.061-.04.105v.08h-.082v.203H6.37v.245h-.082v.245h-.081v.322l-.041.025-.04.025v.106c0 .057-.02.18-.045.273-.066.252-.101.4-.243 1.025l-.13.572-.138.264a1.6 1.6 0 0 0-.139.316c0 .03-.018.053-.04.053H5.35v.079c0 .044-.019.09-.041.105l-.04.025v.2h-.072l-.023.112a.6.6 0 0 1-.11.214c-.223.262-.657.734-.887.966-.14.142-.256.276-.256.299a.04.04 0 0 1-.04.041H3.84v.123h-.081v.058c0 .031-.015.064-.033.071-.033.014-.24.437-.327.667a4.2 4.2 0 0 0-.171.87c0 .157-.07.486-.125.59a.3.3 0 0 0-.04.122c0 .028-.056.16-.122.295l-.121.244v.227h-.082v.245h-.082v.079c0 .044-.018.09-.04.104l-.041.026v.096c0 .053-.014.102-.03.11-.018.007-.152.261-.3.565-.38.778-.446.927-.446 1.018 0 .043-.016.09-.036.102-.034.02-.058.124-.112.482l-.023.153h-.073v.404l-.041.025-.041.025v.363H1.4l-.026.194c-.014.106-.042.322-.061.48a4.4 4.4 0 0 1-.16.755l-.125.449c-.14.502-.16.61-.205 1.143-.024.281-.064.704-.089.94l-.044.428-.086.286c-.047.157-.1.292-.118.299l-.033.014v.238H.372v.245H.29v.204H.249c-.023 0-.041.024-.041.053 0 .075-.096.273-.133.274-.017 0-.03.026-.03.058 0 .051-.213.538-.594 1.362-.055.118-.1.242-.1.275s-.015.061-.033.061-.059.064-.09.142c-.03.079-.07.143-.089.143h-.033v.164h-.082v.058c0 .031-.015.063-.033.071-.038.015-.294.604-.397.912-.037.112-.15.369-.25.571l-.262.525a.7.7 0 0 0-.078.232c0 .042-.018.087-.04.101l-.041.025v.276l-.041.026c-.023.013-.041.061-.041.105 0 .077-.015.116-.116.312a.4.4 0 0 0-.047.15c0 .032-.014.065-.03.072-.018.008-.094.152-.17.32-.266.59-.426.92-.5 1.027a.4.4 0 0 0-.076.166c0 .032-.036.097-.081.145l-.082.088v.207h-.081v.164h-.082v.061c0 .06-.017.104-.116.295a.5.5 0 0 0-.047.174v.082h-.081v.1a.6.6 0 0 1-.039.194l-.27.706c-.127.337-.266.691-.308.786a1 1 0 0 0-.078.253c0 .043-.018.091-.04.105l-.041.025v.199h-.081v.245h-.034c-.019 0-.059.092-.09.204-.03.113-.07.204-.088.204h-.034v.08c0 .043-.018.09-.04.104s-.041.062-.041.107a.8.8 0 0 1-.082.25 1 1 0 0 0-.082.224c0 .031-.029.112-.064.181s-.12.31-.188.536a6 6 0 0 1-.156.475 2 2 0 0 0-.082.309 3 3 0 0 1-.083.327 1.3 1.3 0 0 0-.058.245l-.048.316-.023.154h-.073v.326h-.082v.485l.041.026.041.025v.403h.073l.022.174c.033.262.07.45.106.541.076.192.125.38.125.48v.107l.041.025.041.026v.089c0 .049.048.218.107.375l.16.429.051.143.014.919.014.918-.072.654-.073.653-.19.592a6 6 0 0 1-.222.631c-.019.021-.034.098-.034.171v.132l-.04.025-.041.026v.403h-.082v.327h-.082v.281l-.036.022c-.02.013-.046.092-.058.176a3 3 0 0 1-.071.337l-.05.184-.012.852-.013.852-.043.124-.043.124v.523l.046.191c.026.106.063.21.082.231s.035.072.035.112v.074H-6c.02 0 .047.032.06.071s.051.145.085.234l.061.163-.04.039-.039.04v.269h-.081v.058c0 .031-.063.174-.14.317a2.4 2.4 0 0 0-.29.812l-.026.187.045.169.046.168.098.118.099.117.045.181.046.182-.02.509a9 9 0 0 1-.047.689l-.029.179.05.168c.027.092.066.2.086.239s.037.095.037.125c0 .068.26.355.323.355.026 0 .097.049.157.109l.109.109.027.261.027.262.117.123a1 1 0 0 0 .255.181l.137.058h.348l.042.112c.024.062.056.204.071.316.05.35.094.606.134.776q.142.603.234 1.225c.08.554.14.811.283 1.204l.157.439c.026.073.061.133.078.133h.03v.204h.082v.164h.082v.119c0 .065.014.125.03.132.018.008.074.143.125.3s.11.322.131.367c.02.045.083.22.139.388.135.406.333.916.519 1.337a1 1 0 0 1 .076.226c0 .029.037.079.082.111.045.033.082.082.082.11 0 .058.1.177.49.579l.265.274.122.059c.067.033.158.092.202.132.043.039.103.071.132.071s.054.018.054.041v.041h.06c.133 0 .612.323.776.523.045.055.141.166.214.247a.7.7 0 0 1 .132.183c0 .019.052.083.113.143s.19.209.283.333l.17.224.238.49c.13.27.252.496.268.504.017.007.031.039.031.071v.058h.082v.163h.081v.45h.081v.28l.235.227c.13.125.25.228.267.228s.13.101.249.224c.118.124.233.225.255.225s.077.032.122.071c.105.093.25.176.526.301.067.031.132.07.144.086l.023.03.202-.001c.111-.001.32.001.463.003l.26.006.026-.035c.013-.018.11-.077.215-.13l.192-.096.135.027c.074.015.195.038.268.05l.132.023v-.09h.444l.026-.041c.014-.023.06-.041.104-.041s.08-.014.08-.031.05-.053.112-.081c.061-.028.176-.107.255-.177.078-.07.259-.183.4-.251l.26-.124.17-.019.171-.02.056.105.056.104-.035.829c-.052 1.211-.019 3.059.089 4.922l.022.377h.073l.02.868c.011.477.031 1.056.045 1.286l.025.419h44.379l-.033-.337a4 4 0 0 0-.072-.48c-.123-.447-.124-1.624-.003-1.898.02-.045.05-.156.065-.245.04-.227.04-1.792 0-2.287l-.034-.408.067-.368c.102-.565.137-.724.19-.857a4 4 0 0 0 .102-.306c.082-.281.288-.855.318-.885.015-.015.027-.07.027-.122v-.096h.081v-.245h.082v-.285h.082v-.286h.082v-.368h.074l.021-.214c.012-.118.042-.316.066-.439.092-.452.17-.906.244-1.398.046-.314.146-1.42.207-2.297.053-.759.097-1.235.163-1.776.026-.214.065-.544.086-.735l.08-.694c.024-.191.052-.49.064-.664l.021-.316h.076v-.245h.081v-.164h.082v-.204h.032c.047 0 .125-.3.186-.718.03-.204.068-.392.084-.418l.029-.048h.18l.04-.092.04-.091.143-.069.143-.069.288.005.288.004.059-.037a1.3 1.3 0 0 1 .242-.088l.184-.049.602-.002.602-.002v-.081h.245v-.082h.163v-.082h.163v-.081h.132l.143-.153a1.3 1.3 0 0 0 .199-.284l.056-.13.026-.279.026-.28-.048-.366a20 20 0 0 0-.105-.693l-.058-.326-.045-.797c-.025-.437-.06-.915-.08-1.061a16 16 0 0 0-.166-1.041 14 14 0 0 1-.147-.817.5.5 0 0 0-.06-.202l-.036-.039v-.351h-.081v-.106c0-.088-.178-.694-.287-.976-.09-.232-.41-1.286-.492-1.623l-.08-.327c-.077-.307-.175-.77-.23-1.082l-.022-.132h-.073v-.204h-.082v-.205h-.081v-.24l-.041-.025-.04-.025v-.143c0-.079.019-.18.042-.224.043-.08.376-.443.825-.9l.236-.239h.161v-.082h.163v-.081l.133-.001c.132-.001.412-.082.465-.135.016-.015.062-.028.103-.028s.075-.013.075-.03.042-.051.092-.076c.322-.158.52-.269.541-.303.014-.022.06-.04.104-.04h.079v-.041c0-.022.019-.04.042-.04s.18-.066.347-.145l.305-.145.1-.1.1-.1h.126v-.082h.056c.031 0 .082-.03.113-.068.03-.037.157-.141.28-.232s.248-.194.276-.229c.084-.105.295-.531.295-.595v-.06h.082v-.063c0-.035.037-.14.082-.233a1 1 0 0 0 .081-.222c0-.03.019-.054.041-.054h.04v-.073a.2.2 0 0 1 .036-.113c.02-.021.122-.259.227-.528.106-.27.246-.597.312-.729a1.3 1.3 0 0 0 .12-.296v-.057h.081v-.062c0-.034.022-.103.047-.153.104-.2.116-.237.116-.336v-.103h.074l.022-.194c.02-.185.048-.331.154-.826l.048-.225v-.592a7 7 0 0 0-.031-.745l-.03-.153h-.073v-.199l-.041-.026c-.023-.014-.04-.061-.04-.104v-.079h-.082v-.058a1 1 0 0 0-.088-.235 4 4 0 0 1-.119-.259c-.098-.256-.096-.249-.242-1.041a14 14 0 0 0-.324-1.388c-.043-.146-.1-.348-.125-.449a9 9 0 0 0-.085-.309 1 1 0 0 1-.038-.233v-.107l-.036-.022c-.02-.013-.05-.101-.067-.197l-.03-.173-.016-1.603-.016-1.602h-.08v-1.389h.082v-.771l.04-.025.042-.025v-.44l.036-.022.035-.022.024-.235c.013-.13.043-.328.068-.44.068-.316.12-.625.162-.959.057-.46.2-1.461.246-1.715.022-.124.07-.464.106-.756.081-.648.119-.884.18-1.123.026-.1.057-.266.068-.367a.6.6 0 0 1 .058-.222l.037-.04v-.269h.081v-.326h.082v-.327h.082v-.327h.081v-.11c0-.06.035-.211.077-.336.125-.373.25-.847.379-1.432l.157-.714c.02-.09.056-.246.082-.347a5 5 0 0 0 .068-.317c.012-.073.038-.143.058-.156l.036-.022v-.281h.081v-.449h.075l.022-.215c.042-.395.072-.58.108-.663.072-.166.103-.5.201-2.184.02-.349.047-.698.059-.776s.041-.41.065-.735c.13-1.768.15-1.924.453-3.47.078-.396.196-.853.246-.95a.5.5 0 0 0 .037-.173v-.103h.082v-.245h.081v-.204h.034c.018 0 .058-.092.089-.204s.07-.204.089-.204h.033v-.082c0-.045.014-.081.03-.081.034 0 .07-.075.282-.587.076-.181.137-.353.137-.382 0-.028.018-.052.04-.052h.042v-.078c0-.043.013-.085.03-.092a1 1 0 0 0 .129-.208c.054-.106.114-.194.133-.194s.034-.027.034-.061v-.061h.04a.04.04 0 0 0 .042-.04c0-.045.068-.133.285-.37.079-.085.19-.216.245-.29.056-.074.176-.22.266-.324.262-.304.306-.363.306-.407 0-.024.036-.082.081-.13s.082-.112.082-.141c0-.03.017-.054.038-.054s.05-.037.064-.081a.4.4 0 0 1 .074-.134c.22-.239.517-.709.517-.82v-.067h.073l.03-.153c.017-.085.037-.503.046-.93l.016-.775.037-.082c.053-.112.088-.347.111-.745l.02-.337h.071l.021-.52c.012-.287.041-.76.065-1.052l.044-.53.018-2.307c.01-1.27.029-2.353.042-2.41.065-.269.145-.9.22-1.735.022-.247.061-.65.087-.898l.046-.449-.018-.306-.017-.306-.134-.276c-.073-.152-.15-.287-.17-.299s-.036-.058-.036-.102v-.079h-.081v-.163h-.082v-.163h-.082v-.246h-.082v-.081c0-.045-.014-.082-.032-.082-.017 0-.056-.084-.087-.188a3 3 0 0 0-.127-.337 4 4 0 0 1-.135-.332c-.174-.501-.344-.934-.438-1.112a.4.4 0 0 1-.038-.153v-.083h-.081v-.163h-.081v-.245h-.082v-.24l-.041-.025-.041-.026v-.235l-.037-.022c-.02-.013-.046-.092-.058-.176a10 10 0 0 0-.165-.787c-.034-.146-.098-.43-.142-.633-.081-.368-.273-.985-.33-1.061a1.2 1.2 0 0 1-.087-.235c-.03-.106-.07-.194-.088-.194s-.032-.037-.032-.081v-.082h-.081v-.163h-.081v-.164H66.4v-.079c0-.044-.019-.09-.041-.104s-.041-.061-.041-.105v-.08h-.081v-.162h-.082v-.164h-.041c-.023 0-.041-.023-.041-.052 0-.053-.278-.604-.324-.642a3 3 0 0 1-.163-.286c-.077-.146-.154-.271-.173-.279-.019-.007-.034-.049-.034-.092v-.078h-.081v-.122h-.082v-.122h-.082v-.062c0-.034-.016-.061-.035-.061s-.06-.055-.087-.123c-.028-.067-.066-.122-.084-.122s-.045-.037-.059-.082a.4.4 0 0 0-.076-.132c-.072-.073-.516-.806-.516-.851 0-.02-.018-.038-.04-.038h-.041v-.063c0-.034-.037-.102-.082-.15s-.081-.112-.081-.142-.019-.053-.041-.053h-.041v-.163h-.082v-.122h-.04c-.023 0-.041-.024-.041-.053 0-.05-.324-.741-.578-1.234-.07-.135-.148-.286-.173-.337-.025-.05-.059-.091-.076-.091s-.03-.02-.03-.043c0-.024-.046-.089-.102-.145a.4.4 0 0 1-.102-.132c0-.016-.103-.14-.229-.274a24 24 0 0 1-.459-.508c-.294-.336-.531-.577-.653-.662a6 6 0 0 1-.388-.346c-.33-.315-.43-.381-.576-.381h-.103v-.082h-.105c-.187 0-.387-.16-.67-.535-.163-.215-.663-.705-.785-.768l-.112-.057-.024-.075-.023-.076h-.059c-.032 0-.058-.014-.058-.03 0-.017-.052-.054-.115-.082a1 1 0 0 1-.198-.128 1.2 1.2 0 0 0-.218-.148 1.3 1.3 0 0 1-.241-.168.6.6 0 0 0-.177-.12c-.04-.013-.072-.04-.072-.061s-.027-.038-.06-.038h-.062v-.041c0-.023-.02-.041-.043-.041s-.081-.037-.13-.082l-.087-.081h-.23v-.082h-.163v-.082h-.131l-.114-.122c-.063-.068-.132-.123-.153-.123s-.072-.036-.112-.081-.1-.082-.13-.082c-.086 0-.707-.292-.707-.332v-.035h-.163v-.092l-.1.02-.102.019.022-.034.02-.035-.143-.143c-.154-.155-.207-.174-.24-.09l-.02.056-.127-.019-.126-.018v-.034c0-.019.018-.045.04-.06.023-.013.041-.05.041-.083v-.06h-.076a.8.8 0 0 1-.218-.058 1.7 1.7 0 0 0-.35-.087l-.211-.028-.093.06-.092.06-.053-.018-.052-.018.049-.059.049-.059-.087-.06a1.3 1.3 0 0 1-.146-.12l-.06-.061h-.21v.122l-.112-.001a.5.5 0 0 1-.21-.055l-.096-.054.134-.027c.172-.034.145-.057-.127-.107a2 2 0 0 1-.303-.078 4 4 0 0 0-.32-.107l-.238-.07-.138-.139c-.076-.075-.157-.137-.18-.137a.04.04 0 0 1-.042-.041c0-.023-.024-.041-.054-.041-.075 0-.272-.096-.273-.133 0-.017-.033-.03-.073-.03h-.072l-.06-.082c-.031-.045-.078-.082-.102-.082a1 1 0 0 1-.21-.08l-.165-.08-.13-.154c-.199-.239-.205-.247-.256-.358-.026-.057-.061-.104-.078-.104s-.044-.037-.058-.083a.6.6 0 0 0-.126-.181.4.4 0 0 1-.098-.126c0-.102-.584-.549-.716-.549-.07 0-.155-.067-.472-.374-.132-.128-.272-.243-.311-.256l-.072-.023-.1-.153-.1-.153.01-.817.012-.816-.04-.184-.09-.429-.05-.245-.1-.201a1.4 1.4 0 0 0-.159-.258c-.031-.031-.057-.074-.057-.094s-.1-.138-.224-.262l-.225-.224v-.06c0-.033-.018-.071-.04-.085s-.041-.06-.041-.104v-.08h-.081v-.073a.2.2 0 0 0-.036-.112c-.019-.022-.058-.227-.086-.456l-.051-.417.047-.216c.069-.316.135-.537.173-.581.019-.022.034-.099.034-.171v-.133l.04-.025.041-.025v-.24h.073l.027-.154c.014-.084.037-.23.05-.326l.022-.174h.073v-.24l.037-.022c.02-.013.047-.092.062-.176l.05-.286.023-.133h.073v-.08c0-.043.016-.088.035-.1s.046-.086.059-.164a1.5 1.5 0 0 1 .09-.297l.126-.29a.7.7 0 0 0 .057-.192c0-.032.04-.096.09-.141l.089-.084h.148v-.081h.055c.03 0 .173-.06.317-.132l.26-.131.378-.378c.207-.207.377-.395.377-.417 0-.023.046-.087.102-.143s.102-.121.102-.145.019-.042.041-.042h.04v-.062c0-.033.017-.06.037-.06.058 0 .277-.48.397-.87.06-.197.126-.369.145-.38s.034-.057.034-.101.016-.112.036-.15c.02-.04.075-.194.123-.342l.086-.271v-.337h.081v-.444l.041-.025.041-.025v-.562l.04-.026.042-.025v-.69l.05-.163c.028-.09.065-.163.082-.163h.031v-.1c0-.054.016-.11.036-.122s.046-.073.058-.135c.04-.207.319-1.498.36-1.664.021-.09.059-.237.082-.327s.051-.245.062-.347c.01-.1.035-.22.055-.265q.062-.143.108-.643l.022-.235h.074v-.403l.04-.026.042-.025v-.444h.073l.022-.194c.012-.107.042-.295.068-.418a9 9 0 0 0 .091-.652l.046-.427-.052-.532a38 38 0 0 1-.087-1.125c-.02-.326-.056-.74-.08-.919-.025-.18-.055-.432-.067-.561l-.022-.235h-.074v-.449h-.082v-.49h-.081v-.403l-.041-.026-.04-.025v-.107c0-.11-.064-.342-.128-.47a.3.3 0 0 1-.036-.115c0-.042-.186-.49-.31-.749a.6.6 0 0 1-.057-.155c0-.02-.037-.112-.082-.205a1 1 0 0 1-.082-.223c0-.03-.018-.053-.04-.053h-.041v-.08a.6.6 0 0 0-.082-.227.7.7 0 0 1-.082-.205v-.06h-.081v-.204h-.082V10.7h-.081v-.058c0-.032-.12-.298-.266-.592a6 6 0 0 1-.265-.575c0-.022-.014-.04-.03-.04-.017 0-.05-.042-.074-.093-.115-.242-.328-.623-.355-.635-.017-.008-.03-.05-.03-.092v-.079h-.082v-.122h-.081v-.078c0-.043-.016-.085-.035-.092-.067-.026-.292-.558-.485-1.141-.106-.323-.208-.594-.225-.601s-.031-.042-.031-.077-.034-.093-.075-.13a.7.7 0 0 1-.132-.198c-.032-.073-.072-.133-.089-.133s-.03-.021-.03-.047c0-.072-.41-.443-.49-.443a.04.04 0 0 1-.041-.04v-.041h-.061c-.034 0-.062-.017-.062-.036 0-.02-.136-.172-.302-.337-.316-.314-.347-.341-.514-.45a2 2 0 0 1-.19-.143c-.217-.187-.263-.219-.311-.219-.029 0-.078-.036-.11-.081l-.06-.082h-.145V4.01c0-.02-.055-.058-.122-.086-.068-.028-.123-.067-.123-.087s-.017-.036-.04-.036a3 3 0 0 1-.417-.216 10 10 0 0 0-.594-.313c-.117-.053-.214-.112-.214-.131v-.034h-.079c-.044 0-.09-.018-.105-.04-.013-.023-.06-.042-.104-.042h-.08v-.081h-.077c-.043 0-.085-.014-.092-.03-.02-.044-.357-.215-.422-.215-.03 0-.06-.015-.068-.032-.007-.018-.114-.08-.238-.139l-.489-.233a1.7 1.7 0 0 0-.316-.127c-.029 0-.052-.018-.052-.04v-.042h-.163v-.033c0-.019-.092-.059-.204-.09-.112-.03-.204-.07-.204-.088V1.84h-.163v-.08h-.204v-.082h-.164v-.033c0-.019-.092-.059-.204-.09-.112-.03-.204-.07-.204-.089v-.033h-.095c-.052 0-.107-.012-.122-.027-.028-.028-.605-.237-.844-.305a13 13 0 0 1-.367-.115c-.123-.04-.362-.113-.53-.161a21 21 0 0 1-.432-.128l-.125-.04h-1.117zM7.067 124.663l.158.089.123.242c.068.133.124.267.124.299v.058h.081v.163h.082v.245h.082v.363l.04.025.041.025v.195l.041.025.04.025v.644l-.04.025c-.022.014-.04.061-.04.104v.08h-.082v.204h-.081v.079c0 .044-.02.091-.042.105l-.04.025v.199h-.082v.163H7.39v.064c0 .098-.173.399-.372.647l-.18.225-.071.002-.072.002v.081h-.163v.082H6.47c-.034 0-.102.037-.15.082-.048.044-.117.081-.152.082h-.063l-.368.274c-.402.3-.55.434-.55.499a.04.04 0 0 1-.041.043.04.04 0 0 0-.041.042c0 .063-.19.244-.257.244h-.056l-.2-.429c-.11-.236-.214-.429-.231-.429s-.031-.027-.031-.061v-.061h-.041c-.023 0-.041-.02-.041-.045s-.05-.094-.112-.154a1.2 1.2 0 0 1-.164-.2l-.05-.09v-.364l.04-.025.041-.025v-.2h.082v-.204h.081v-.245h.082v-.245h.082v-.199l.04-.025c.023-.014.041-.062.041-.105 0-.044.019-.117.041-.161l.082-.163a.4.4 0 0 0 .04-.161c0-.045.04-.187.089-.317l.088-.237.12-.112a2.3 2.3 0 0 1 .4-.259c.267-.141.347-.206.6-.486.061-.068.176-.171.254-.231.079-.059.226-.187.328-.285.195-.188.363-.315.422-.319a.8.8 0 0 1 .192.086" clip-rule="evenodd"/></svg>