<svg xmlns="http://www.w3.org/2000/svg" fill="none" viewBox="0 0 54 64"><path fill="#D717E7" fill-rule="evenodd" d="M33.193.288c-.056.025-.12.088-.12.12v.03h-.07v.14h-.071v.495h.07v.14h-.07v1.083h-.071v.071h-.07v.07h-.141v.071h-.067l-.016.07-.016.071h-.043v.278l.03.01.029.01.008.245.008.245.023.014c.012.007.028.055.036.106s.025.099.038.107l.024.016.011.137.012.136.032.032.032.032v.212l.035.035.035.035v.138h.071v.447h.07v.118h.071v.235h.071v.282h.07v.21l.034.019.033.018.008.304.008.304.03.01.029.01v.208h.065l.015.059.015.058h.046v.094h.071v.071h.066l.016.07.015.071h.067v.071h.047v.072l.036.013.035.014v.112l-.04.047c-.023.026-.055.048-.071.048-.017 0-.03.01-.03.023v.024h-.279l-.008-.024-.008-.024-.092-.015-.092-.015-.043-.037c-.024-.02-.043-.05-.043-.067v-.03h-.036c-.019 0-.035-.01-.035-.022v-.021l-.07-.016c-.04-.008-.071-.024-.071-.035s-.032-.027-.07-.035l-.071-.016v-.067h-.071v-.141h-.094v-.071h-.047v-.07h-.094v-.071h-.118v-.07h-.094v-.066l-.06-.015-.058-.014v-.023q-.002-.021-.028-.023A.4.4 0 0 1 32 6.355l-.1-.105-.06-.015c-.034-.008-.06-.023-.06-.033s-.027-.025-.06-.033l-.058-.015-.014-.057-.014-.057-.069-.015c-.037-.008-.068-.024-.068-.035 0-.01-.032-.027-.07-.035l-.071-.016v-.021c0-.012-.016-.022-.036-.022h-.035v-.071h-.065l-.012-.047-.013-.047h-.122v-.07h-.07V5.59h-.071v-.071h-.071v-.07h-.067l-.015-.07-.016-.071h-.113v-.071h-.071v-.07h-.071v-.071h-.07v-.071h-.072l-.014-.035-.014-.035h-.065v-.071H30.2l-.04-.047c-.023-.026-.054-.047-.071-.047s-.03-.01-.03-.023v-.024h-.141v-.065l-.065-.017c-.035-.009-.072-.028-.081-.043l-.017-.028H28.8l-.053.046c-.03.026-.053.06-.053.077v.03h-.071v.353h.071v.141h.067l.015.07.015.071h.022c.012 0 .022.016.022.036v.035h.07v.027c0 .015.038.063.083.107s.082.09.082.103.027.048.06.078c.032.03.058.065.058.076 0 .012.03.049.067.081a.3.3 0 0 1 .084.109c.008.027.031.056.05.063l.034.013v.072h.071l.001.053.001.053.07.058c.038.032.07.071.07.088v.03h.07v.071h.07v.114l.071.016.07.015v.067h.071v.07h.071v.071h.141v.071h.071v.07h.07v.071h.071v.07h.071v.071h.07v.071h.071v.027c0 .014.037.063.082.107l.083.08v.068h.07v.07h.071v.066l.058.015.059.014.015.059.014.058h.066v.066l.035.013.035.014v.072h.071v.07h.071v.071h.07v.141h.071v.071h.071v.07h.07v.071h.071v.071h.07v.07h.091l.07.07.069.069.062.015c.034.009.062.024.062.034v.018l.117.015.118.016v.042l.07.015c.04.009.071.025.071.036s.032.026.07.035c.04.008.071.024.071.035s.032.027.071.035.07.025.07.036.032.026.071.035l.07.015v.067h.071v.071h.141v.02c0 .012.028.029.062.037l.06.015.053.057.052.056.062.015.061.016.013.033.013.033h.12v.071h.093v.07h.113l.014.036.013.035h.143v.071h.212v.07h.07v.071h.212v.07h.071v.071h.072l.013.033.012.033.057.015.058.014v.046h.14v.071h.071v.07h.073l.012.033.013.034.057.014.057.014v.023c0 .013.012.023.027.023s.063.037.107.083c.045.045.095.082.112.082h.032l.013.035.014.036h.072v.07h.027c.014 0 .051.027.081.06l.055.059.078.015.077.015.019.031a.07.07 0 0 0 .053.032h.034v.071h.141v.07h.212v.071h.282v.07h.094v.071h.189v.071h.165v.07h.14v.065l.135.011.134.011.01.027.008.027h.228l.036.036.035.035h.121v.07h.161l.033.033c.018.018.066.04.108.049.04.009.075.025.075.035v.02l.106.015.106.016v.022c0 .012.015.022.033.022s.051.017.072.039l.038.038.105.012.105.011v.037l.14.016.142.017v.019c0 .01.031.026.069.034l.069.015.013.034.013.034h.115l.008.026.009.026.111.012.111.013v.018c0 .01.03.025.065.034s.071.027.08.04l.015.026.125.012.126.012.031.032.032.031h.142l.035.036.035.035h.232v.07h.033c.019 0 .038.012.042.026l.009.025.1.013.099.013v.065h.164v.07h.141v.071h.141v.07h.28l.035.036c.02.02.047.035.062.035s.031.015.038.033l.013.033.057.015.057.014v.046h.094v.066l.059.014.059.015.014.057.014.057.069.015.068.015v.022c0 .012.016.021.035.021h.036v.071h.07v.071h.071v.094h.065l.015.059.015.058h.046v.094h.067l.016.071.015.07h.022c.012 0 .021.017.021.036v.035h.071v.141h.064l.014.098c.007.054.023.104.035.112s.03.04.04.073.03.066.044.075l.027.017.007 1.2.008 1.202h.037l.018.288.017.288.02.013.02.013.017.17.015.169h.033l.017.71.016.712.023.014.024.014.014.128.015.128.026.016.026.017.008.207.009.207.021.013.022.014.014.31.015.31h.064v.278l.03.01.029.01.007.415.007.416h.068v.682h.071v.494h.07v6.235h-.07v.777h-.071v.376h-.071v1.409l-.032.02-.032.018-.012.126-.011.126-.024.015-.023.015-.013.409-.012.409-.024.014-.023.015-.01.337-.008.336-.026.017-.025.016-.014.103-.013.104-.026.016-.025.015-.015.71-.016.71h-.033l-.012.168-.012.167-.032.02-.031.02-.01.6-.01.602h-.04v.19l-.042.015a.2.2 0 0 0-.06.04l-.02.026-.012-.03-.012-.03h-.09v-.07h-.071v-.137l-.028-.01-.028-.009-.01-.163-.01-.163-.022-.014c-.011-.007-.028-.055-.036-.106l-.014-.092-.026-.017-.026-.016-.008-.283-.008-.284h-.066v-.211h-.071v-.145l-.035-.035-.035-.036v-.208h-.071v-.141h-.071v-.141h-.07v-.165h-.071v-.141h-.07v-.709l.035-.036.035-.035v-1.717l.035-.036.036-.035v-.232h.07v-.353h.071v-.423h.071v-.849l.035-.013.035-.014v-.133l.032-.032.032-.032.011-.136.012-.137.024-.015.023-.016.016-.431.016-.432-.016-.28-.016-.28h-.063v-.035c0-.02-.01-.036-.022-.036h-.022l-.015-.07-.015-.07h-.067v-.071h-.071v-.141h-.071v-.071h-.07v-.094h-.071v-.047h-.033c-.019 0-.037.01-.042.025l-.008.025-.1.013-.1.013v.065h-.07v.07h-.071v.071h-.065l-.014.035-.013.036h-.193l-.036.035-.035.035h-.091v.071h-.118v.07h-.067l-.015.07-.015.071h-.067v.066l-.036.014-.035.013v.12h-.071v.093h-.07v.118h-.071v.07h-.07v.067l-.069.015-.068.015-.015.058-.014.057h-.046v.072l-.036.014-.035.013v.033c0 .018-.021.052-.047.074s-.047.053-.047.07-.01.03-.024.03h-.023v.071h-.066l-.013.035c-.008.02-.025.035-.038.035h-.024v-.07h-.07l-.015-.118-.016-.118h-.035l-.017-.198-.016-.198-.033-.013-.034-.013v-.139l-.027-.008-.027-.01-.011-.134-.011-.134h-.065v-.035c0-.02-.01-.035-.021-.035s-.028-.026-.036-.058l-.014-.058-.119-.119a.6.6 0 0 0-.14-.118h-.023v-.071h-.071v-.07h-.07v-.069l-.084-.015-.084-.016-.08.013-.078.013-.05.049c-.026.026-.048.059-.048.072q-.002.021-.024.023c-.013 0-.044.021-.07.047s-.047.058-.047.071v.024h-.071v.07h-.065l-.014.053a.5.5 0 0 0-.015.104v.05l-.023.009-.023.008-.016.17-.016.17h-.036l-.017.183-.017.182-.022.015c-.012.008-.028.058-.035.111l-.013.098h-.038l-.016.135-.017.136-.022.014c-.012.008-.028.058-.035.112l-.014.097h-.064v.282h-.071v1.133l-.035.035-.035.036v.16h-.071v.495h-.07v.424h-.071v.235h-.071v.423h-.07v.282h-.066l-.01.17-.009.168-.028.01-.029.01v.16h-.14v-.03c0-.016-.031-.056-.068-.089l-.067-.058-.017-.094c-.01-.051-.027-.099-.038-.106l-.02-.012-.016-.24-.017-.241h-.04v-.141h.047v-.212h-.043l-.016-.141-.016-.142h-.037l-.016-.188-.017-.188h-.037l-.013-.097-.014-.098-.027-.017-.027-.017-.013-.097-.013-.098h-.019c-.01 0-.025-.031-.033-.07-.01-.039-.025-.07-.036-.07s-.027-.032-.035-.071l-.016-.07h-.067v-.071h-.07v-.071h-.071v-.067l-.07-.015-.071-.016v-.043h-.283v.07h-.07v.141h-.067l-.016.071c-.008.039-.023.07-.034.07h-.019l-.01.135-.012.134-.027.009-.027.009v.139l-.034.013-.034.013-.015.068-.015.069h-.043v.12l-.033.012-.032.012-.015.093-.015.092h-.044l-.016.112-.017.112-.025.016-.026.017v1.321l.025.017.026.017.016.165.017.164.022.008.023.008v.792l-.03.01-.03.01v1.021l.027.017.025.017.015.092c.008.05.025.098.037.106s.03.043.039.078.024.065.035.065c.01 0 .026.032.035.07l.015.07h.041l.016.083.015.083h.042l.014.092.015.093.033.012.032.013v.122l.036.036.035.035v.157l.025.009.025.008.013.1.014.099h.064v.212h.071v.282h.07v.212h.071v.235h.071v.353h.066l.008.24.008.239.03.01.029.009v.492l.035.013.035.014v.255l.036.014.035.013v.133l.032.032c.018.018.04.066.05.108.008.041.025.075.036.075s.027.032.035.07l.016.071h.066v.035c0 .02.01.036.022.036h.022l.015.07.016.07h.022c.011 0 .021.017.021.036v.035h.071v.03c0 .017.021.049.047.07.026.023.047.056.047.074v.033l.035.014.036.013v.12h.07v.093h.046l.015.058.014.057.033.012.033.013v.123l.036.035.035.035v.133l.035.014.036.013v.12h.07v.164h.071v.07h.071v.141h.07v.071h.071v.091l.035.035.035.035v.12l.042.023.04.025-.03.02-.03.02-.014.092-.015.092-.032.019a.07.07 0 0 0-.031.053v.034h-.071v.071h-.07v.07h-.141v.044l-.07.014-.068.015-.014.058-.014.057-.057.014-.056.014-.014.056-.014.057-.059.014-.058.015v.066h-.066l-.014.035-.013.035h-.12v.071h-.07v.07h-.094v.071h-.141v.071h-.142v.07h-.07v.071h-.071v.07h-.07v.071h-.071v.07h-.071v.071h-.07v.071h-.071v.067l-.07.015-.071.015v.067h-.071v.071h-.07v.07h-.066l-.014.036-.013.035h-.072v.022c0 .012-.024.03-.052.038a.3.3 0 0 0-.111.084c-.033.038-.073.068-.09.068h-.03v.07h-.07v.071h-.071v.071h-.047v.07h-.067l-.015.07-.016.071h-.067v.142h-.07v.211h-.071v.094h-.046l-.015.06-.015.058h-.065v.071h-.071v.07h-.07v.069l-.083.015-.082.016v.019c0 .01-.024.027-.052.036a.3.3 0 0 0-.111.084c-.033.037-.073.067-.09.067-.016 0-.03.01-.03.023v.023l-.059.015-.059.015v.065h-.094v.071h-.07v.07h-.071v.071h-.07v.071h-.071v.07h-.071v.071h-.07v.07h-.071v.024c0 .03-.087.117-.118.117h-.023v.071h-.071v.071h-.07v.07h-.071v.071h-.071v.07h-.07v.071h-.071v.07h-.03c-.034 0-.111.083-.111.118v.024h-.071v.027a.7.7 0 0 1-.141.165.8.8 0 0 0-.141.16v.024h-.071v.071h-.071v.07h-.07v.071h-.071v.07h-.07v.071h-.095v.071h-.07v.07h-.071v.071h-.141v.067l-.07.015-.071.016v.066h-.071v.118h-.071v.094h-.07v.071h-.071v.07h-.035c-.02 0-.035.01-.035.022v.022l-.071.015c-.039.009-.07.025-.07.035s-.032.027-.07.035l-.068.015-.013.034-.013.034h-.139l-.008.025-.009.025-.099.014-.1.013v.064h-.14v.071h-.034c-.018 0-.037.011-.042.025l-.008.025-.1.013-.1.014v.064h-.164v.071h-.118v.07h-.212v.071h-.232l-.035.035-.035.035h-.145v.065l-.098.013c-.053.007-.104.023-.111.035s-.056.028-.107.036-.098.024-.106.035-.056.027-.107.036l-.094.014-.008.025c-.005.013-.023.024-.042.024h-.033v.064l-.098.013c-.053.007-.104.023-.111.035l-.015.022-.126.012-.126.012-.015.025-.015.024-.095.017c-.051.01-.1.027-.108.04l-.014.02-.133.014-.133.014v.039l-.118.016-.117.015v.02c0 .012-.016.021-.036.021h-.035l-.04.047-.041.047h-.131v.071h-.035c-.02 0-.035.01-.035.022v.021l-.071.016-.07.015v.067h-.071v.071h-.142v.07h-.07v.071h-.071v.07h-.07v.071h-.071v.027c0 .015-.037.063-.082.107l-.083.08v.068h-.07v.036c0 .019-.01.035-.022.035h-.022l-.015.07-.016.071h-.067v.071h-.07v.07h-.071v.071h-.071l-.04.047c-.022.026-.054.047-.07.047h-.03v.07h-.036c-.02 0-.035.01-.035.022v.022l-.075.016a.3.3 0 0 0-.108.05c-.018.017-.047.032-.064.032h-.03l-.014.035-.014.035h-.12v.071h-.073l-.07.07c-.04.04-.087.071-.105.071h-.034v.071h-.094v.07h-.07v.071h-.118v.07h-.094v.071h-.071v.07h-.119l-.014.036-.013.035h-.066v.064l-.1.014-.099.013-.008.025-.008.025h-.087l-.037.037-.037.037-.212.014-.212.013v.034l-.309.012-.309.013-.015.023-.014.023-.208.01-.208.011-.016.025-.016.024-.159.017-.159.017v.042l-.117.015-.118.016v.035l-.13.017-.129.016v.02c0 .01-.034.027-.075.036a.3.3 0 0 0-.108.049.12.12 0 0 1-.075.032h-.044l-.008.026-.009.025-.1.013-.099.013v.065h-.141v.07h-.033c-.019 0-.037.011-.042.025l-.008.025-.1.014-.1.013v.064h-.14v.071h-.095v.07h-.118v.071h-.094v.066l-.059.014-.058.015v.046h-.095v.071h-.212v-.071h-.07v-.07h-.071v-.142h-.07v-.14h-.071v-.165h-.071v-.212h-.07v-.209l-.036-.035-.035-.035v-.121h-.07v-.161l-.032-.032-.031-.031-.015-.105-.014-.105-.025-.009-.025-.008v-.299l-.03-.03a.3.3 0 0 1-.047-.073c-.008-.023-.026-.041-.04-.041h-.024v-.114l.03-.01.029-.01v-.839l-.03-.01-.029-.01v-.207h-.071v-.212h-.065l-.015-.082-.016-.083h-.039l-.015-.094-.015-.094h-.046v-.588h.041l.017-.176.016-.177h.037l.016-.117.015-.118h.04l.015-.096.016-.097.034-.035.035-.034v-.091h.047l.015-.094.015-.094h.064v-.094h.046l.017-.065a.3.3 0 0 1 .047-.096l.032-.03V48.9l.035-.035.035-.036v-.09h.044l.015-.071.015-.07h.067v-.141h.071v-.212h.071v-.141h.07v-.073l.036-.013.035-.014v-.132l.035-.036a.12.12 0 0 0 .035-.072v-.037h.071v-.141h.071v-.141h.064l.013-.098c.007-.053.023-.104.035-.112s.028-.055.036-.106.024-.099.036-.106c.011-.008.027-.055.035-.106s.024-.098.037-.106l.021-.013.017-.136.017-.135h.038l.016-.1c.01-.055.027-.106.04-.114l.021-.014.014-.215.014-.216h.017c.01 0 .025-.047.034-.106l.016-.105h.039l.016-.136.017-.135.02-.013.021-.013.016-.175.016-.175.024-.016.024-.016.011-.149.01-.149.025-.016.025-.015.01-.143.01-.143h.066v-.212h.07v-.141h.071v-.071h.071v-.071h.164v-.07h.189v-.071h.142l.014-.035.013-.035h.184v-.071h.161l.036-.035.035-.035h.193l.014-.036.013-.035h.133l.032-.032a.3.3 0 0 1 .108-.05c.041-.008.075-.024.075-.034v-.02l.098-.012c.053-.007.104-.023.112-.035.007-.012.055-.028.106-.036s.099-.025.106-.037c.008-.013.043-.03.079-.039.035-.009.064-.025.064-.036v-.02l.106-.015.106-.016v-.018c0-.01.037-.025.082-.034l.083-.015v-.041l.07-.016c.04-.008.071-.024.071-.035s.032-.027.07-.035l.071-.016v-.043l.093-.015.093-.014.012-.033.013-.032h.036c.02 0 .036-.01.036-.022v-.022l.07-.015.071-.016v-.067h.141v-.07h.142v-.071h.094v-.07h.14v-.071h.142v-.071h.118v-.07h.094v-.071h.12l.013-.035.013-.035h.066v-.071h.12l.013-.035.013-.035h.066v-.071h.141v-.071h.071v-.067l.07-.015c.04-.008.07-.024.07-.035s.033-.027.072-.035l.07-.016v-.067h.071v-.07h.065l.014-.036.013-.035h.073v-.046l.058-.015.06-.015v-.065h.07v-.071h.03c.015-.001.055-.033.087-.071.031-.039.071-.07.088-.07h.03v-.07h.071v-.071h.07v-.071h.071v-.07h.071v-.071h.07v-.07h.071v-.071h.071v-.094h.07v-.071h.071v-.117h.07v-.071h.071v-.045c0-.025.014-.06.03-.077a.3.3 0 0 0 .047-.072c.009-.023.026-.041.037-.041.012 0 .029-.027.037-.06l.015-.058h.046v-.072l.035-.013.036-.014v-.114l.034-.013.033-.013.015-.069c.009-.037.024-.068.035-.068s.027-.032.036-.07c.008-.04.024-.072.035-.072.01 0 .027-.031.035-.07s.025-.07.036-.07.026-.032.035-.071c.008-.04.024-.07.036-.07h.02l.016-.107.016-.106h.018c.01 0 .026-.029.034-.064.01-.035.027-.07.04-.078.011-.008.028-.056.036-.107s.025-.098.037-.106.027-.06.035-.117l.014-.103.031-.032.032-.031v-.158l.03-.01.029-.01.008-.232.008-.234.026-.016.027-.016.01-.171.009-.17.033-.034.034-.034-.007-.566-.007-.565-.03-.01-.029-.01v-.51l-.032-.032-.032-.032-.012-.231-.012-.231-.023-.015-.024-.015-.011-.138-.011-.137-.024-.016c-.013-.008-.03-.057-.038-.107-.008-.051-.024-.099-.036-.106-.012-.008-.03-.049-.038-.09-.01-.042-.026-.077-.037-.077h-.02l-.016-.13-.016-.129h-.018c-.01 0-.025-.037-.034-.082l-.015-.083h-.041l-.016-.07c-.009-.039-.024-.07-.034-.07h-.02l-.01-.132-.011-.132-.025-.015c-.014-.01-.033-.045-.042-.08s-.024-.065-.035-.065c-.01 0-.025-.03-.034-.065s-.027-.07-.039-.078-.029-.055-.037-.106l-.014-.092-.032-.02-.032-.018v-.115h-.043l-.015-.069-.015-.068-.034-.013c-.019-.008-.034-.025-.034-.04s-.016-.041-.036-.06l-.035-.036v-.091h-.07V32.2h-.071v-.094h-.071v-.141h-.07v-.071h-.071v-.141h-.071v-.071h-.07v-.07h-.071v-.071h-.067l-.015-.07-.016-.071h-.067v-.024c0-.03-.087-.117-.117-.117-.013 0-.024-.01-.024-.022 0-.028-.514-.543-.542-.543a.4.4 0 0 1-.1-.082c-.045-.046-.093-.083-.108-.083h-.027v-.07h-.07v-.071h-.071v-.071h-.024a.5.5 0 0 1-.125-.105l-.102-.106h-.102v-.071h-.067l-.015-.07-.016-.071h-.067v-.071h-.07v-.07h-.12l-.013-.035-.014-.036h-.065v-.065l-.059-.015-.058-.015-.015-.058-.015-.058h-.114l-.013-.036-.014-.035h-.114l-.014-.035-.013-.036h-.114l-.013-.034-.013-.033-.069-.015-.069-.015v-.041l-.082-.016c-.045-.009-.082-.024-.082-.034v-.019l-.124-.017-.123-.017-.014-.02-.014-.022-.127-.015-.128-.015-.014-.021c-.008-.012-.061-.028-.118-.036l-.103-.013-.017-.026-.017-.026H20.9l-.017.026-.017.026-.092.014c-.05.008-.098.024-.106.035s-.055.028-.106.036-.098.024-.106.036l-.013.022-.136.017-.135.017v.036l-.118.015-.117.016v.04l-.107.016-.105.016v.02c0 .011-.032.027-.071.036s-.07.024-.07.035v.02l-.136.017-.135.016-.015.022c-.008.013-.058.028-.111.036l-.098.013v.064h-.137l-.008.024-.008.024-.094.015c-.052.008-.101.025-.11.038l-.015.023-.126.012-.126.012-.019.032c-.01.017-.03.032-.043.032s-.04.016-.059.035l-.035.035h-.162v.071h-.282v.071h-.141v.07h-.141v.071h-.214l-.014.035-.013.035h-.114l-.014.036-.013.035h-.113v.07h-.161l-.036.036-.035.035h-.122l-.014.035-.014.036h-.11l-.019.031-.019.032-.092.015c-.05.008-.098.023-.106.035-.007.011-.055.027-.106.035s-.098.025-.106.037c-.008.013-.043.03-.078.039s-.065.026-.065.037c0 .012-.016.021-.035.021h-.035v.071l-.148.003c-.08.002-.205.001-.276-.002l-.13-.007-.012-.02c-.007-.01-.057-.026-.112-.035l-.1-.016v-.038l-.111-.017-.112-.016-.015-.024-.015-.023-.126-.012-.126-.012-.014-.02c-.008-.012-.055-.028-.106-.036s-.1-.026-.108-.039l-.015-.023-.138-.012-.137-.01-.017-.027-.017-.026-.29-.008-.288-.008-.02-.033-.018-.034h-.21v-.07h-.183l-.013-.035-.014-.036h-.143v-.07h-.8v-.071h-.283v-.07h-.282v-.071h-.777v-.067l-.357-.008-.357-.007-.01-.03-.01-.03h-.279v-.064l-.493-.017-.495-.018v-.041H8.17l-.014.03-.013.029-.014-.03-.014-.03H7.108v.043l-.141.017-.142.016v.066h-.07v.07h-.071v.071h-.212v.071h-.07v.07H6.33v.071h-.094v.07h-.118v.071h-.094v.07h-.12l-.013.036-.013.035h-.031c-.017 0-.061.03-.098.066a.4.4 0 0 1-.108.082c-.022.008-.04.026-.04.04v.024H5.53v.07h-.07v.067l-.07.016-.071.015v.067h-.071v.071h-.07v.07h-.071v.047h-.071v.071h-.03c-.016 0-.048.021-.07.047l-.04.047h-.072v.071H4.76l-.014.035-.013.035H4.66v.071h-.071v.07h-.141v.071h-.141v.07h-.071v.066l-.059.015-.059.014v.047h-.094v.07h-.071v.071h-.07v.141h-.071v.071h-.07v.094H3.67v.118H3.6v.093h-.035c-.02 0-.035.01-.035.022v.022l-.071.015-.07.016v.067h-.071v.07h-.071v.071h-.065l-.014.035-.014.035h-.072v.027c0 .015-.026.051-.058.081-.033.03-.06.066-.06.08v.024h-.07v.071h-.071v.07h-.07v.071H2.68l-.014.035-.013.035h-.066v.071h-.071v.071h-.07v.07h-.071v.071h-.07v.07h-.071v.067l-.07.016-.071.015v.067h-.066l-.015.058-.014.059-.059.015-.058.014v.066H1.81v.068l-.117.116a.6.6 0 0 0-.118.142v.027h-.071v.07h-.07v.071h-.071v.07h-.047v.071h-.071v.071h-.07v.03c0 .016-.022.048-.047.07l-.048.04v.071h-.07v.071H.94v.071H.87v.094H.799v.117H.728v.094h-.07v.118H.587v.141H.516v.094H.452l-.013.1-.014.1-.025.008-.025.008v.137h-.07v.141H.24l-.013.098c-.007.053-.023.104-.035.112s-.029.043-.037.079l-.016.064H.094l-.015.118-.016.118H.028l-.011.12-.012.12-.023.015c-.013.008-.031.047-.04.086s-.028.076-.04.084l-.023.014-.014.169-.014.168h-.018c-.009 0-.022.044-.03.097-.007.054-.022.104-.034.112s-.029.056-.037.107-.024.098-.037.106L-.327 38l-.017.147-.017.146H-.4l-.015.093-.015.093-.032.012-.033.013v.209l-.026.009-.027.009-.012.128-.012.128-.021.014c-.012.008-.028.055-.036.106l-.014.092-.026.017-.026.017-.008.23-.008.23-.033.02-.033.018v.209H-.85v.118h-.07v.094h-.07v.141h-.071v.071h-.065l-.01.131-.011.132-.024.015-.024.016-.016.164a.6.6 0 0 1-.036.176c-.01.007-.025.054-.033.105s-.024.098-.036.106-.029.048-.038.09l-.017.077h-.043v.137l-.066.067a.4.4 0 0 0-.082.107c-.008.023-.027.041-.041.041a.5.5 0 0 0-.132.106.5.5 0 0 1-.134.107c-.015 0-.053.032-.085.07s-.072.07-.088.07h-.031v.071h-.071v.07h-.07v.071h-.141v.141h-.071v.071h-.141v.07h-.071v.232l-.035.036-.036.035v.12h-.07v.144l-.036.013-.035.014v.067l.065-.007.065-.007-.003.105-.002.105-.027.009-.027.009v.134l-.033.032a.3.3 0 0 0-.049.108l-.016.075h-.043v.141h-.067l-.016.07-.015.071h-.138v-.035c0-.02-.01-.035-.02-.035h-.02l-.014.097c-.007.054-.023.104-.035.112s-.03.04-.04.07c-.02.066-.122.168-.168.168h-.032l-.014.057-.014.057-.033.012c-.019.008-.034.025-.034.04s-.015.041-.035.06l-.035.036v.09h-.041l-.017.177-.017.176h-.066v.282h-.071v.137l-.035.013-.036.014v.12h-.07v.281h-.071v.141h-.071v.091l-.035.036a.12.12 0 0 0-.035.072v.037h-.071v.119l-.035.014-.035.013v.033c0 .018-.01.033-.023.033a.4.4 0 0 0-.106.082l-.083.083-.014.059-.015.058h-.065v.035c0 .02-.01.036-.021.036s-.029.029-.038.064-.026.07-.038.078-.03.055-.038.105l-.014.091-.054.05-.053.05-.016.063-.016.063h-.066v.035c0 .02-.01.036-.021.036h-.022l-.016.075a.3.3 0 0 1-.05.107.12.12 0 0 0-.032.068c0 .02-.016.051-.035.07l-.035.036v.091h-.071v.137l-.03.01-.029.01-.007.46-.007.459.036.037.037.036v.336l-.035.036-.036.035v.133l-.035.013-.035.014v.072h-.071v.141h-.071v.071h-.07v.07h-.067l-.016.07-.015.071h-.022c-.012 0-.021.016-.021.036v.035h-.071v.141h-.071v.072l-.035.014-.035.013v.066h-.066l-.015.059-.014.059h-.047v.072l-.033.013-.034.012-.015.07-.015.068h-.022c-.011 0-.027.025-.035.057l-.015.057-.033.013-.033.012v.072h-.071v.036c0 .02-.01.035-.021.035h-.022l-.015.07c-.009.04-.025.071-.036.071s-.027.032-.035.07l-.016.071h-.066v.138l-.025.008-.024.008-.014.094c-.009.051-.026.1-.038.109l-.024.015-.011.126-.012.126-.026.017-.027.016-.008.21-.008.208.038.037.037.038v.118l.034.02.033.018.008.269.008.268.03.01.029.01v.492l.035.013.035.014v.114l.036.013.035.014v.065h.07v.071h.071v.071h.071v.07h.094v.071h.07v.046l.057.014.057.014.013.051a1 1 0 0 1 .014.15v.098l-.033.034a.24.24 0 0 0-.05.096c-.009.034-.025.061-.037.061h-.02v.046c0 .025-.015.06-.033.078a.3.3 0 0 0-.049.107l-.016.075h-.043l-.015.094-.015.094h-.04l-.015.083c-.008.045-.024.082-.034.082s-.026.032-.035.07l-.015.071h-.043l-.015.093-.015.093-.032.012-.033.013v.139l-.024.007-.024.008-.015.094c-.008.052-.024.1-.035.108s-.028.055-.036.106-.025.099-.038.107l-.024.016-.01.132-.011.131h-.065v.165h-.071v.141h-.071v.118h-.07v.094h-.071v.117h-.07v.094H-7.3v.071h-.067l-.015.07-.016.071h-.022c-.012 0-.021.016-.021.035v.036h-.067l-.016.07-.015.071h-.022c-.012 0-.022.016-.022.036v.036l-.035.014-.035.013v.114l-.033.013-.034.013-.014.057c-.008.031-.024.057-.036.057h-.022l-.016.082c-.008.046-.024.083-.034.083s-.026.031-.035.07c-.008.039-.024.07-.034.07h-.019l-.015.1-.016.1-.024.014c-.012.008-.03.056-.037.106-.009.051-.024.099-.036.106-.011.008-.027.055-.035.106s-.025.099-.038.107l-.023.015-.012.127-.012.126-.022.014-.022.014-.013.103-.014.104-.026.017-.025.016-.009.23-.008.23-.027.018-.027.016-.008.301-.008.301-.033.019-.034.019v1.339h-.07v.423h-.071v.588h.066l.008.201.009.2.026.018.026.016.012.129.012.128.027.01.026.008v.347l.033.018.032.02.01.23.01.231.025.016.024.016.014.233.014.233.021.014.022.014.016.27.016.27.02.012.018.013.015.245.015.245.02.014.022.014.017.305.017.306.019.012.018.012.017.288.018.288h.034l.016.276.016.275.02.013.02.013.016.164.016.164.02.012.02.013.016.2.018.2.02.012.02.013.016.176.016.175.025.016.024.016.01.16.01.161.025.016.024.015.011.131.011.132h.065v.208l.027.009.027.009.011.14.012.138.032.032.032.032v.141l.035.036.036.035v.208h.07v.235h.071v.212h.07v.212h.071v.232l.035.035.036.035v.192h.07v.209l.032.02.032.018.014.092c.008.051.024.099.036.106.011.008.027.055.035.106s.024.098.035.106.027.055.036.106.023.098.035.106c.011.007.027.055.035.106l.015.092.026.016.026.016.013.098.013.097h.039l.015.082c.009.046.024.083.034.083h.018l.016.106.016.106h.044l.015.094.015.094h.039l.015.082.016.082h.041l.015.093.015.093.032.012.033.013v.142h.02c.012 0 .029.03.038.065s.027.07.04.079l.023.014.013.098.013.097h.065v.145l.035.035.035.035v.138h.071v.165h.07v.141h.071v.141h.071v.188h.07v.091l.036.035.035.036v.144h.067l.015.07c.009.04.025.072.036.072s.026.031.035.07c.008.039.024.07.035.07s.027.032.036.071l.015.07h.022c.012 0 .021.017.021.037v.036l.033.012.032.013.015.093.015.092h.042l.016.07.016.071h.022c.012 0 .021.016.021.036v.036l.034.013.034.013.015.069.015.069h.021c.012 0 .028.025.036.057l.014.057.034.013.033.012v.142h.07v.142h.071v.035c0 .02.01.036.022.036h.021l.016.07.015.07h.067v.095h.046l.015.059.015.059h.065v.094h.071v.118h.071v.093h.07v.12l.033.012.034.013.014.057.014.057h.047v.094h.065l.015.06.015.058h.046v.094h.07v.071h.067l.016.07c.008.04.024.07.035.07s.027.033.035.071l.016.071h.067v.025c0 .013.026.048.057.077l.057.053.016.064.016.063h.066v.066l.035.013c.02.008.035.026.035.04s.032.058.07.097c.04.038.072.084.072.101v.031l.035.014.035.013v.072h.071v.071h.046l.014.057.015.057.033.013.033.013v.072h.071v.07h.07v.141h.071v.071h.071v.071h.07v.07h.071v.141h.07v.071h.071v.07h.071v.028c0 .014.037.063.082.107s.082.09.082.102a.8.8 0 0 0 .142.16c.077.076.14.144.14.153 0 .029.082.11.112.11h.03v.024c0 .034.151.187.185.187h.027v.071h.071v.07h.07v.071h.071v.07h.07v.071h.071v.07h.071v.071h.07v.071h.071v.07h.071v.071h.072l.013.035.014.035h.065v.071h.071v.066l.059.014.059.015v.023c0 .013.012.023.027.023a.7.7 0 0 1 .164.14l.137.141.06.015.059.015v.066h.035c.02 0 .036.01.036.021v.022l.07.016.07.015v.067H.48c.02 0 .035.01.035.022v.021l.071.016.07.015v.067h.071v.07H.87v.071h.07v.071h.071v.07h.067l.015.07.016.071h.021c.012 0 .022.017.022.036v.036l.033.013.032.013.015.092.015.093h.044l.016.082c.008.045.024.082.034.082h.02l.016.13.016.13h.018c.01 0 .025.036.033.08l.016.08.024.009.024.008.014.1c.007.054.02.099.03.099h.018l.017.135.017.135.023.014.023.015.014.103.013.104.025.016.026.017.009.183.009.184.026.016.026.016.01.243.009.242.026.017.027.017.008.336.008.336.023.014.024.015.003.23.004.232-.03.01-.028.009v.276l-.032.019-.032.018-.014.093c-.008.05-.024.098-.036.105l-.02.014-.013.129-.012.128-.027.009-.026.009v.137h-.071v.091l-.037.037-.038.038-.012.093-.013.094h25.995v-.025c0-.014.016-.041.035-.06l.036-.036v-.161h.043l.015-.071.016-.07h.022c.012 0 .021-.017.021-.036v-.035h.094v-.071h.141v.212h.048v.071h-.047v.07h-.071v.137l.141.016.142.016v.042h2.774l.01-.029.01-.029h.768l.01.03.01.029h15.694l.013-.065c.007-.035.011-.206.01-.378l-.004-.314.026-.016.026-.016.017-.323.016-.323h.04v-.142h-.046v-.113l.026-.01.027-.008v-1.043l-.001-1.043-.024-.015-.024-.015-.018-.523-.017-.523h-.035l-.017-.383-.017-.382-.023-.014-.023-.015-.013-.244-.013-.245-.019-.012-.019-.012-.016-.34-.017-.341-.025-.017-.024-.016-.01-.23-.01-.231-.033-.02-.032-.018v-.488l-.03-.01-.029-.01v-1.168l.03-.01.029-.01v-.488l.033-.018.033-.02.008-.23.008-.23.026-.017.026-.016.015-.822.014-.822.022-.013.021-.014.01-.372.01-.372.025-.016.025-.016.017-.235.017-.235.018-.012.018-.012.014-.245.015-.246.021-.013.022-.014.017-.123.017-.124h.04l.016-.117c.009-.065.024-.118.033-.118h.017l.016-.17.016-.17.02-.012.02-.013.018-.141.017-.141.021-.014.021-.013.015-.163.015-.163.022-.014.022-.015.013-.197.014-.197.031-.031.032-.032v-.228l.03-.01.029-.01.008-.243.008-.243.033-.033.033-.033v-.344l.035-.014.036-.013v-.421l.024-.008.024-.008.015-.312.015-.311h.063v-.448h.071v-.705h.065l.009-.201.008-.201.026-.017.026-.017.016-.28.015-.282.02-.013.021-.013.01-.583.008-.584.026-.016.027-.017.009-.195.008-.195.026-.017.026-.016.013-.104.014-.103.022-.014.022-.014.012-.127.011-.125.025-.016c.014-.008.032-.044.041-.08.01-.035.025-.064.036-.064h.02l.015-.105.016-.104.033-.012.033-.013v-.036c0-.02.009-.036.02-.036h.02l.014-.083.014-.084.072-.063c.04-.034.072-.076.072-.093 0-.016.01-.03.023-.03h.024v-.071l.047-.04c.026-.023.047-.054.047-.07v-.03h.07v-.071h.047l.014-.06.015-.058h.066v-.065l.035-.014.035-.014v-.072h.071v-.07h.071v-.071h.07v-.07H50v-.071h.07v-.071h.071v-.14h.071v-.071h.07v-.071h.071v-.03c0-.034.082-.111.118-.111h.023v-.071h.03c.017 0 .057-.03.09-.067a.3.3 0 0 1 .11-.084c.03-.01.053-.026.053-.037s.03-.026.068-.035l.069-.015.013-.034.013-.033h.036c.02 0 .036-.01.036-.022s.03-.028.065-.037.07-.026.079-.04l.014-.023.098-.013.097-.013v-.018c0-.01.032-.026.07-.034l.071-.016v-.067h.095v-.046l.058-.015.06-.014v-.066h.07v-.071h.07v-.07h.071v-.071H52v-.07h.094v-.066l.059-.015.059-.014v-.046h.072l.013-.036.014-.035h.065v-.071h.071v-.07h.071l.04-.047c.023-.026.049-.047.059-.047.032 0 .113-.08.113-.111v-.03h.07v-.048h.071v-.094h.07v-.117h.071v-.66h-.071v-.07h-.07v-.14H52.8v-.142h-.07v-.094h-.071v-.12l-.035-.013-.036-.013v-.113h-.07v-.091l-.036-.035a.12.12 0 0 1-.035-.07v-.036l-.07-.07-.071-.07v-.075l-.047-.04c-.026-.023-.047-.054-.047-.071s-.01-.03-.022-.03h-.022l-.015-.07-.016-.071h-.067v-.071h-.047v-.07h-.067l-.015-.071-.016-.07h-.067v-.066l-.035-.014-.035-.013v-.072h-.046l-.015-.06-.015-.058h-.065v-.07h-.071v-.095h-.071v-.07h-.07v-.118h-.071v-.07h-.07v-.094h-.071v-.071h-.071v-.071h-.07v-.07h-.071v-.071h-.067l-.015-.07-.016-.071h-.067v-.071h-.07v-.07h-.024c-.013 0-.023-.014-.023-.03 0-.017-.022-.049-.047-.07-.026-.023-.048-.056-.048-.074v-.033l-.035-.014-.035-.013v-.072h-.046l-.015-.057-.014-.057-.033-.013-.033-.013v-.072h-.047l-.014-.059-.015-.058h-.066v-.095h-.07v-.118h-.025c-.013 0-.03-.018-.04-.04a.3.3 0 0 0-.046-.073.13.13 0 0 1-.03-.076v-.045h-.071v-.118h-.071v-.094h-.07v-.071h-.071v-.141h-.071v-.07h-.07v-.091l-.036-.036c-.019-.019-.035-.046-.035-.06v-.025h-.07v-.072l-.036-.014-.035-.013v-.102l-.047-.04-.047-.041v-.071h-.047v-.072l-.034-.013-.033-.013-.014-.057-.014-.057h-.047v-.072l-.033-.013-.033-.013-.015-.06a.24.24 0 0 0-.05-.093l-.033-.035v-.09h-.071v-.071h-.071v-.141h-.07v-.035c0-.02-.01-.036-.022-.036h-.022l-.015-.07-.016-.07h-.067v-.142h-.07v-.141h-.071v-.094h-.07v-.142h-.071v-.118h-.071v-.09l-.035-.035a.12.12 0 0 1-.035-.072v-.037h-.071v-.141h-.07v-.141h-.067l-.016-.071-.015-.07h-.022c-.012 0-.022-.017-.022-.036v-.035h-.07v-.141h-.071v-.073l-.032-.012-.033-.013-.015-.092-.015-.093h-.043l-.015-.069-.015-.068-.034-.013-.033-.013v-.12h-.044l-.015-.07c-.009-.039-.025-.07-.035-.07s-.027-.031-.035-.07l-.015-.068-.034-.013-.034-.013v-.184l-.036-.014-.035-.013v-.143h-.07v-.141h-.071v-.212h-.071v-.141h-.07v-.165h-.071v-.212h-.071v-.14h-.07v-.213h-.071v-.211h-.07v-.12l-.036-.013-.035-.014v-.206h-.071v-.141h-.07v-.143l-.036-.014-.035-.013v-.133l-.035-.035a.12.12 0 0 1-.036-.07c0-.02-.014-.05-.032-.068a.3.3 0 0 1-.049-.108c-.009-.041-.025-.075-.035-.075h-.019l-.013-.098c-.007-.053-.023-.103-.035-.111s-.03-.038-.039-.068c-.009-.029-.026-.053-.037-.053h-.021l-.016-.117-.016-.118h-.018c-.01 0-.026-.032-.035-.07-.008-.04-.024-.071-.034-.071s-.027-.029-.035-.064c-.01-.036-.027-.071-.04-.08l-.023-.014-.014-.097-.013-.098h-.018c-.01 0-.026-.03-.034-.069l-.015-.068-.034-.013-.034-.013v-.114l-.035-.014-.035-.013v-.139l-.028-.01-.028-.009-.01-.157-.01-.157.038-.014.038-.015v-.114l.035-.014.035-.013v-.066h.071v-.07h.07v-.071h.067l.016-.07.015-.07h.022c.012 0 .022-.017.022-.036v-.035h.067l.015-.071c.009-.039.025-.07.035-.07s.027-.032.036-.071l.015-.07h.023c.012 0 .03-.02.038-.042a.4.4 0 0 1 .081-.108l.066-.066v-.071l.071-.07.07-.07v-.091h.071v-.118h.071v-.094h.07v-.113l.036-.013.035-.014v-.072h.071v-.141h.07v-.141h.071v-.071h.071v-.072l.035-.013.035-.014v-.113h.071v-.045c0-.025.014-.06.03-.076a.3.3 0 0 0 .047-.073c.008-.022.025-.04.037-.04s.029-.027.037-.06l.015-.058h.046v-.073l.033-.012.033-.013.016-.062.015-.062.056-.052.057-.052.015-.06c.008-.034.025-.062.036-.062.012 0 .021-.015.021-.035v-.036l.047-.04c.026-.022.047-.054.047-.07s.011-.03.024-.03h.024v-.071h.066l.015-.068.015-.07.034-.012.034-.013v-.12h.071v-.14h.07v-.071h.071v-.141h.071v-.094h.07v-.141h.071v-.071h.071v-.141h.07v-.071h.071v-.14h.07v-.071h.071v-.141h.071v-.071h.07v-.141h.071v-.071h.071v-.091l.034-.034a.24.24 0 0 0 .05-.096c.008-.033.023-.061.033-.061s.026-.028.034-.062l.016-.062.07-.061c.037-.034.069-.07.069-.081s.016-.036.035-.055l.035-.035v-.091h.071v-.113l.035-.013.035-.014v-.072h.071v-.141h.071v-.071h.07v-.141h.071v-.071h.071v-.07h.07v-.071H50v-.14h.07v-.071h.071v-.073l.035-.013.036-.014v-.065h.023a.4.4 0 0 0 .115-.094.4.4 0 0 1 .118-.094h.026v-.071h.027c.015 0 .063-.037.107-.082l.08-.083h.069v-.07h.065l.014-.035c.007-.02.025-.036.039-.036.034 0 .258-.222.258-.255v-.027h.071v-.071h.071v-.07h.07v-.071h.071v-.141h.07v-.141h.071v-.141h.071v-.161l.035-.036.035-.035v-1.129l-.027-.01-.027-.008-.011-.134-.011-.134h-.065v-.282h-.071v-.448h-.07v-.211h-.071v-.374l-.035-.035-.035-.035v-.635l-.033-.033-.032-.032-.01-.17-.01-.171-.025-.017-.025-.016-.012-.302-.011-.302-.025-.016-.024-.015-.009-.454-.008-.454-.026-.017-.027-.016-.01-.561-.012-.561-.025-.016-.025-.015-.008-.795-.008-.795-.026-.017-.026-.016-.016-.176-.016-.175-.023-.015-.023-.014-.015-.18-.015-.182h-.033l-.015-.416-.015-.416-.025-.015-.024-.015-.015-.198-.015-.198-.018-.012-.018-.012-.017-.559-.017-.558h-.034l-.017-.289-.018-.288-.022-.014-.022-.013-.014-.21-.014-.21-.026-.017-.026-.016-.009-.372-.008-.371-.02-.013-.02-.013-.017-.168-.015-.168-.032-.013-.032-.012v-.35l-.023-.008-.022-.008-.016-.341-.017-.341-.024-.016-.023-.015-.011-.132-.011-.132H50v-.518h-.071v-.4h-.07v-.234h-.071v-.567l-.035-.013-.036-.014v-.206h-.07v-.328l-.034-.018-.033-.02-.008-.265-.008-.265-.025-.017-.026-.017-.015-.092c-.008-.05-.024-.098-.035-.106L49.44 22l-.015-.315-.015-.316-.02-.014-.021-.013-.012-.126-.012-.126-.024-.015-.025-.016-.016-.135-.017-.135h-.036l-.017-.212-.016-.212h-.02c-.01 0-.027-.034-.036-.076-.01-.042-.027-.083-.039-.09l-.021-.014-.014-.169-.015-.168h-.033L49 19.646l-.015-.202-.035-.035a.13.13 0 0 1-.035-.079v-.043l-.03-.01-.029-.01-.008-.208-.009-.208-.033-.033-.032-.032v-.134l-.025-.009-.025-.008-.014-.105-.015-.105-.031-.031-.032-.032v-.344l-.035-.014-.035-.014v-.142h-.071v-.282h-.07v-.353h-.071v-.094h-.071v-.494h-.07v-.212h-.071V16.2h-.07v-.425l-.036-.014-.035-.013v-.133l-.032-.031-.031-.032-.017-.164-.017-.163-.02-.013-.019-.012-.01-.172-.009-.172-.025-.016-.025-.016-.014-.093-.015-.092-.026-.016-.027-.016-.013-.239-.013-.239h-.034l-.011-.322-.01-.322-.027-.009-.027-.008-.016-.14-.016-.14h-.036l-.016-.211-.017-.212h-.02c-.01 0-.025-.032-.034-.07l-.015-.071h-.067v-.09l-.026-.009-.026-.009-.013-.117-.013-.116-.032-.02c-.017-.01-.032-.029-.032-.042s-.015-.04-.035-.06l-.035-.035v-.138h-.071v-.094h-.07v-.14h-.071v-.212h-.071v-.141h-.07v-.212h-.071v-.161l-.035-.036c-.02-.02-.035-.047-.035-.06v-.026h-.071v-.045a.13.13 0 0 0-.03-.077.3.3 0 0 1-.047-.072c-.009-.022-.027-.041-.04-.041h-.024v-.067l-.106-.106a.6.6 0 0 1-.106-.123.6.6 0 0 0-.106-.12.5.5 0 0 1-.106-.125v-.024h-.071v-.07h-.07v-.071h-.094v-.07h-.071v-.071h-.071v-.071h-.189l-.014-.035-.014-.035h-.065v-.071h-.071v-.07h-.141v-.066l-.06-.015-.062-.015-.05-.054a.3.3 0 0 0-.093-.069c-.023-.008-.041-.025-.041-.038v-.022l-.07-.015c-.04-.009-.071-.025-.071-.036s-.023-.027-.051-.036a.3.3 0 0 1-.103-.072l-.052-.056-.074-.015-.073-.015V9c0-.012-.016-.021-.036-.021h-.035l-.04-.047c-.023-.026-.055-.047-.071-.047-.017 0-.03-.01-.03-.022v-.021l-.07-.016c-.04-.008-.072-.024-.072-.035s-.031-.027-.07-.036l-.07-.015v-.067h-.034c-.019 0-.037-.011-.042-.025l-.008-.025-.1-.013-.1-.014v-.064h-.14V8.46h-.141v-.07H43.1v-.071h-.329v-.07h-.094v-.071h-.142v-.064L42.33 8.1l-.206-.015-.008-.024-.008-.024h-.21l-.013-.035-.014-.036h-.112v-.064l-.17-.015-.17-.016-.013-.02-.012-.019-.163-.015-.163-.014-.014-.021c-.007-.012-.048-.029-.09-.038-.042-.01-.076-.025-.076-.036v-.02l-.142-.016-.14-.016v-.037l-.425-.017-.423-.018V7.55l-.181-.016-.181-.015-.016-.024-.015-.025-.204-.014-.204-.014v-.04h-.088c-.048 0-.159-.007-.245-.016l-.158-.014-.013-.056-.014-.055-.065-.016a.2.2 0 0 1-.08-.038l-.014-.024-.12-.011-.12-.012v-.064h-.095v-.071h-.071v-.07h-.14v-.071h-.142v-.071h-.071v-.07h-.07v-.071h-.142v-.07h-.07V6.46l-.033-.013-.032-.013-.015-.093-.015-.092H37.1v-.072l-.036-.014-.035-.013v-.113h-.071v-.095l-.047-.04c-.026-.022-.047-.054-.047-.07s-.01-.03-.023-.03h-.024V5.73h-.07v-.07h-.067l-.016-.071-.015-.07h-.067v-.071h-.071v-.071h-.071v-.07h-.07v-.071h-.071v-.07h-.07v-.071h-.071v-.071h-.071v-.07h-.07v-.071h-.071v-.03c0-.04-.08-.107-.153-.125-.032-.008-.059-.024-.059-.036s-.016-.02-.035-.02h-.035v-.066l-.065-.016c-.035-.01-.071-.027-.08-.041l-.015-.025-.098-.002-.098-.003-.024.035-.024.035-.012-.03c-.007-.015-.025-.029-.04-.029-.016 0-.055-.03-.087-.067a.3.3 0 0 0-.112-.084l-.052-.017-.015-.062a.24.24 0 0 0-.047-.095.12.12 0 0 1-.032-.076v-.046h-.07v-.211h-.071v-.208l-.027-.01-.027-.008-.011-.134-.011-.135h-.065v-.14h-.071V1.801h-.07v-.165h-.071V1.5l-.035-.036-.036-.035v-.141l-.035-.035a.12.12 0 0 1-.035-.073v-.037h-.071v-.07h-.071v-.12L34.05.94l-.035-.013V.86h-.067l-.016-.07-.015-.071h-.11L33.79.65l-.015-.071h-.067V.508h-.071V.437h-.07v-.07h-.034c-.019 0-.05-.016-.07-.036L33.43.296l-.101-.011a.4.4 0 0 0-.135.003M-2.92 43.34v.035h-.071v.142h.018c.01 0 .037-.022.06-.048l.04-.047v-.117h-.047zm-.149.346-.013.1-.025.008-.025.009v.137h.02c.012 0 .029-.029.038-.064s.027-.072.04-.08l.023-.014.013-.097.013-.098h-.071zm-2.935 8.9v.036h.047v.07h-.047v.089a.7.7 0 0 1-.015.14l-.014.054h-.109l-.015-.071-.016-.07.017-.076a.3.3 0 0 1 .049-.107.1.1 0 0 0 .032-.066v-.034h.071zm-.306.565v.035h.164v.071h.141v.07h.071v.071h.071v.165h.046l.014.057.015.057.033.013.033.012v.425h-.282v-.07h-.071v-.071h-.071v-.027a.4.4 0 0 0-.105-.129l-.105-.1-.015-.06c-.008-.033-.024-.06-.036-.06h-.021v-.353h.043l.016-.07.015-.071h.022c.012 0 .022.016.022.035m37.308 34.691.008.024.09.015.091.014.012.033.013.032h.072v.071h.071v.112l-.053.014a.7.7 0 0 1-.142.014h-.088v.071h-.094v.071h.094v.076l.242-.007c.132-.004.291-.005.353-.003l.111.005v.07h.095v.141h-.942v-.07h-.141v-.089a.7.7 0 0 0-.015-.14l-.014-.054h-.066v-.07h-.031c-.018 0-.06-.027-.096-.06l-.064-.058-.013-.082-.014-.082h.075l.019-.034.019-.033.07-.01a1.4 1.4 0 0 1 .2-.002l.13.008z" clip-rule="evenodd"/></svg>