<svg width="324" height="202" viewBox="0 0 324 202" fill="none" xmlns="http://www.w3.org/2000/svg"><rect width="324" height="202" rx="32" fill="#780016"></rect><rect opacity="0.1" x="37.756" y="119" width="17.164" height="29" rx="8.582" fill="#E9C0E9"></rect><rect opacity="0.2" x="57.92" y="95" width="17.164" height="53" rx="8.582" fill="#E9C0E9"></rect><rect opacity="0.4" x="78.084" y="104" width="17.164" height="44" rx="8.582" fill="#E9C0E9"></rect><rect opacity="0.6" x="98.248" y="70" width="17.164" height="78" rx="8.582" fill="#E9C0E9"></rect><rect opacity="0.8" x="118.412" y="82" width="17.164" height="66" rx="8.582" fill="#E9C0E9"></rect><rect x="138.576" y="51" width="17.164" height="97" rx="8.582" fill="#E9C0E9"></rect><path d="M204.873 80.516h10.791v5.191h2.58v-5.19h3.744V78.03h-3.744v-7.08h-2.58v7.08h-7.897l7.268-16.298h-2.894l-7.268 16.612v2.171Zm28.961 5.695c5.128 0 8.683-2.895 8.683-7.016 0-3.21-1.573-5.349-4.436-6.135 2.045-.913 3.304-2.926 3.304-5.443 0-3.713-3.115-6.356-7.551-6.356-4.374 0-7.426 2.234-7.835 5.884h2.612c.44-2.171 2.485-3.524 5.223-3.524 2.894 0 4.908 1.636 4.908 3.996 0 2.611-2.58 4.436-6.261 4.436v2.234c4.782 0 7.425 1.761 7.425 4.908 0 2.706-2.486 4.625-6.072 4.625-3.21 0-5.506-1.605-5.947-4.216h-2.674c.346 4.027 3.65 6.607 8.621 6.607Zm12.061-3.681v3.177h16.454v-2.485h-12.868c9.124-5.82 12.743-9.785 12.743-14.315 0-4.5-3.336-7.646-8.086-7.646-4.594 0-8.055 3.083-8.401 7.488h2.643c.189-3.02 2.548-5.128 5.726-5.128 3.241 0 5.506 2.17 5.506 5.286 0 3.712-3.429 7.205-13.717 13.623ZM217.454 122.292h2.279v-7.829l4.842 7.829h2.917v-10.788h-2.28v7.943l-4.856-7.943h-2.902v10.788Zm15.473.213c2.208 0 3.78-1.331 3.851-2.931h-2.166c-.156.651-.836 1.09-1.671 1.09-1.119 0-1.798-.637-1.926-1.826h5.819v-.255c0-3.171-1.968-4.318-4.006-4.318-2.549 0-3.993 1.869-3.993 4.12 0 2.506 1.529 4.12 4.092 4.12Zm-1.827-5.04c.255-.864.864-1.416 1.728-1.416.906 0 1.543.566 1.741 1.416H231.1Zm8.681 4.827h2.662l1.571-5.649 1.558 5.649h2.633l2.478-7.815h-2.082l-1.769 5.918-1.643-5.918h-2.35l-1.656 5.904-1.77-5.904h-2.081l2.449 7.815Zm-45.661 20.213c2.845 0 4.544-1.175 4.544-3.143 0-1.671-1.061-2.634-3.143-3.115l-1.798-.439c-1.175-.283-1.67-.651-1.67-1.26 0-.793.792-1.161 1.769-1.161 1.147 0 2.025.609 2.096 1.472h2.492c-.015-1.883-1.954-3.567-4.474-3.567-2.535 0-4.333 1.316-4.333 3.185 0 1.699.935 2.634 3.299 3.101l1.671.34c1.486.297 1.741.764 1.741 1.345 0 .764-.764 1.274-2.053 1.274-1.373 0-2.279-.694-2.308-1.77h-2.534c-.113 2.265 1.742 3.738 4.701 3.738Zm7.923-3.837v-4.191h-2.166v4.276c0 2.336 1.204 3.752 3.186 3.752 1.033 0 1.869-.397 2.421-1.09v.877h2.166v-7.815h-2.166v4.092c0 1.359-.609 2.095-1.728 2.095-1.076 0-1.713-.736-1.713-1.996Zm11.927 3.837c2.166 0 3.582-1.713 3.582-4.12 0-2.379-1.373-4.12-3.582-4.12-1.048 0-1.911.425-2.52 1.161v-3.922h-2.166v10.788h2.166v-.948c.594.722 1.458 1.161 2.52 1.161Zm-2.52-4.12c0-1.373.793-2.294 1.954-2.294s1.953.921 1.953 2.294-.792 2.279-1.953 2.279-1.954-.906-1.954-2.279Zm10.927 4.12c2.11 0 3.483-.935 3.483-2.365 0-1.245-.849-1.996-2.421-2.35l-1.302-.311c-.836-.198-1.119-.411-1.119-.765 0-.425.468-.722 1.147-.722.835 0 1.416.482 1.388 1.062h2.123c.071-1.557-1.444-2.789-3.426-2.789-1.996 0-3.327.963-3.327 2.393 0 1.231.835 2.024 2.52 2.35l1.232.24c1.005.213 1.147.468 1.147.808 0 .453-.524.778-1.345.778-.935 0-1.572-.524-1.515-1.232h-2.167c-.169 1.685 1.331 2.903 3.582 2.903Zm8.474 0c2.096 0 3.639-1.303 3.851-3.101h-2.18c-.142.779-.807 1.26-1.671 1.26-1.104 0-1.94-.892-1.94-2.279 0-1.373.807-2.28 1.94-2.28.835 0 1.515.468 1.657 1.232h2.194c-.226-1.84-1.812-3.072-3.851-3.072-2.534 0-4.092 1.869-4.092 4.12 0 2.421 1.685 4.12 4.092 4.12Zm5.031-.213h2.166v-3.397c0-1.742.665-2.662 2.053-2.662.354 0 .835.127 1.062.311v-2.053c-.241-.141-.51-.226-1.006-.226-.878 0-1.628.481-2.109 1.274v-1.062h-2.166v7.815Zm6.404 0h2.167v-7.815h-2.167v7.815Zm-.212-9.698c0 .666.552 1.175 1.303 1.175.736 0 1.302-.509 1.302-1.175 0-.665-.566-1.147-1.302-1.147-.751 0-1.303.482-1.303 1.147Zm8.787 9.911c2.166 0 3.582-1.713 3.582-4.12 0-2.379-1.373-4.12-3.582-4.12-1.047 0-1.911.425-2.52 1.161v-3.922h-2.166v10.788h2.166v-.948c.595.722 1.458 1.161 2.52 1.161Zm-2.52-4.12c0-1.373.793-2.294 1.954-2.294s1.954.921 1.954 2.294-.793 2.279-1.954 2.279-1.954-.906-1.954-2.279Zm11.254 4.12c2.209 0 3.781-1.331 3.851-2.931h-2.166c-.156.651-.835 1.09-1.67 1.09-1.119 0-1.799-.637-1.926-1.826h5.819v-.255c0-3.171-1.968-4.318-4.007-4.318-2.548 0-3.992 1.869-3.992 4.12 0 2.506 1.529 4.12 4.091 4.12Zm-1.826-5.04c.255-.864.864-1.416 1.727-1.416.906 0 1.543.566 1.742 1.416h-3.469Zm7.161 4.827h2.166v-3.397c0-1.742.666-2.662 2.053-2.662.354 0 .835.127 1.062.311v-2.053c-.241-.141-.51-.226-1.005-.226-.878 0-1.628.481-2.11 1.274v-1.062h-2.166v7.815Zm9.623.213c2.11 0 3.483-.935 3.483-2.365 0-1.245-.849-1.996-2.421-2.35l-1.302-.311c-.836-.198-1.119-.411-1.119-.765 0-.425.467-.722 1.147-.722.835 0 1.416.482 1.388 1.062h2.123c.071-1.557-1.444-2.789-3.426-2.789-1.996 0-3.327.963-3.327 2.393 0 1.231.835 2.024 2.52 2.35l1.232.24c1.005.213 1.147.468 1.147.808 0 .453-.524.778-1.345.778-.935 0-1.572-.524-1.515-1.232h-2.167c-.169 1.685 1.331 2.903 3.582 2.903Z" fill="#E9C0E9"></path></svg>