<svg width="162" height="202" viewBox="0 0 162 202" fill="none" xmlns="http://www.w3.org/2000/svg"><rect width="162" height="202" rx="32" fill="#E9C0E9"></rect><path fill-rule="evenodd" clip-rule="evenodd" d="M69.12 44.99c3.13-2.782 7.401-4.365 11.88-4.365 4.48 0 8.75 1.583 11.88 4.364 3.124 2.778 4.848 6.512 4.848 10.372v5.157a4.79 4.79 0 0 0-2.628-.78h-1.912c-2.848 0-5.019 2.448-5.019 5.292v6.145c0 2.843 2.171 5.291 5.019 5.291H95.1c2.848 0 5.018-2.448 5.018-5.291V65.03c0-.304-.025-.603-.072-.895a1.21 1.21 0 0 0 .072-.41v-8.364c0-4.59-2.053-8.96-5.65-12.158-3.594-3.194-8.44-4.968-13.468-4.968-5.028 0-9.874 1.774-13.467 4.968-3.597 3.198-5.65 7.568-5.65 12.158v8.364c0 .144.025.283.072.41-.047.292-.072.591-.072.895v6.145c0 2.843 2.17 5.291 5.018 5.291h1.912c2.848 0 5.018-2.448 5.018-5.291V65.03c0-2.844-2.17-5.292-5.018-5.292H66.9a4.79 4.79 0 0 0-2.629.78V55.36c0-3.86 1.724-7.594 4.849-10.372Zm-2.219 17.138c-1.375 0-2.629 1.22-2.629 2.902v6.145c0 1.681 1.254 2.901 2.63 2.901h1.91c1.376 0 2.63-1.22 2.63-2.901V65.03c0-1.682-1.254-2.902-2.63-2.902h-1.91Zm26.287 0c-1.376 0-2.629 1.22-2.629 2.902v6.145c0 1.681 1.253 2.901 2.629 2.901H95.1c1.375 0 2.628-1.22 2.628-2.901V65.03c0-1.682-1.253-2.902-2.628-2.902h-1.912Z" fill="#061492"></path><path d="M60.721 123.725c5.194 0 8.795-2.931 8.795-7.105 0-3.25-1.594-5.417-4.493-6.213 2.071-.924 3.346-2.964 3.346-5.513 0-3.759-3.155-6.436-7.648-6.436-4.428 0-7.52 2.262-7.933 5.958h2.644c.446-2.198 2.517-3.568 5.29-3.568 2.93 0 4.97 1.657 4.97 4.046 0 2.645-2.613 4.493-6.34 4.493v2.262c4.843 0 7.519 1.785 7.519 4.971 0 2.74-2.517 4.684-6.15 4.684-3.25 0-5.575-1.625-6.022-4.27h-2.708c.35 4.078 3.696 6.691 8.73 6.691Zm12.056-5.767h10.928v5.257h2.613v-5.257h3.792v-2.517h-3.792v-7.169h-2.613v7.169h-7.997l7.36-16.505h-2.931l-7.36 16.823v2.199Zm28.659 5.735c5.035 0 8.571-3.568 8.571-8.666 0-5.13-3.218-8.731-7.806-8.731-2.421 0-4.556 1.052-5.83 2.677l1.306-7.52H108.7v-2.517H95.574l-2.071 13.319 2.517.446c1.21-2.645 3.059-3.983 5.544-3.983 3.537 0 5.799 2.581 5.799 6.309 0 3.664-2.422 6.277-5.927 6.277-3.25 0-5.512-2.263-5.512-5.449h-2.549c.128 4.62 3.441 7.838 8.061 7.838ZM62.628 158.96h2.308v-3.727h2.423c2.352 0 3.943-1.449 3.943-3.599 0-2.137-1.591-3.599-3.943-3.599h-4.731v10.925Zm2.308-5.749v-3.155h2.38c.99 0 1.663.631 1.663 1.578 0 .932-.673 1.577-1.663 1.577h-2.38Zm7.11 5.749h2.194v-10.925h-2.193v10.925Zm6.534.216c1.133 0 2.065-.459 2.695-1.248v1.032h2.194v-4.473c0-2.294-1.462-3.656-3.828-3.656-2.223 0-3.728 1.29-3.814 2.91h2.265c.086-.702.646-1.118 1.477-1.118 1.076 0 1.663.559 1.706 1.606h-2.351c-2.007 0-3.27.903-3.27 2.495 0 1.505 1.134 2.452 2.926 2.452Zm-.717-2.696c0-.559.43-.875 1.577-.875h1.778a2.17 2.17 0 0 1-2.122 1.764c-.746 0-1.233-.344-1.233-.889Zm8.008 5.893h2.093l4.703-11.327h-2.165l-2.25 5.706-2.051-5.706h-2.165l3.168 8.201-1.333 3.126Zm10.687-3.197c2.136 0 3.527-.947 3.527-2.395 0-1.262-.86-2.022-2.452-2.38l-1.32-.316c-.845-.2-1.132-.415-1.132-.774 0-.43.473-.731 1.161-.731.846 0 1.434.487 1.406 1.075h2.15c.072-1.577-1.462-2.824-3.47-2.824-2.021 0-3.369.975-3.369 2.423 0 1.247.846 2.05 2.552 2.38l1.248.244c1.018.215 1.161.473 1.161.817 0 .459-.53.789-1.362.789-.947 0-1.592-.531-1.534-1.248H92.93c-.172 1.706 1.348 2.94 3.627 2.94Z" fill="#061492"></path></svg>