<svg width="162" height="202" viewBox="0 0 162 202" fill="none" xmlns="http://www.w3.org/2000/svg"><rect width="162" height="202" rx="32" fill="#D6A336"></rect><path fill-rule="evenodd" clip-rule="evenodd" d="m92.504 38.919-.966-.703-1.406 1.933.967.703 5.94 4.32.966.703 1.406-1.933-.966-.703-5.94-4.32Zm-20.634 1.23-.966.703-5.94 4.32-.967.702-1.405-1.932.966-.703 5.94-4.32.966-.703 1.406 1.933Zm-5.208 19.59c0-7.92 6.42-14.338 14.338-14.338 7.92 0 14.339 6.419 14.339 14.337 0 7.919-6.42 14.338-14.339 14.338-7.918 0-14.338-6.42-14.338-14.338ZM81 43.01c-9.238 0-16.727 7.489-16.727 16.727 0 9.239 7.489 16.728 16.727 16.728 9.239 0 16.728-7.49 16.728-16.728 0-9.238-7.489-16.727-16.728-16.727Zm0 8.367v-1.195h-2.39v10.753l1.196 1.195H88.17v-2.39H81v-8.363Z" fill="#061492"></path><path d="M63.315 123.693c5.066 0 8.54-3.441 8.54-7.264 0-2.932-1.53-5.29-4.207-6.373 1.912-1.02 3.027-2.836 3.027-4.939 0-3.568-3.027-6.595-7.36-6.595s-7.36 3.027-7.36 6.595c0 2.103 1.115 3.919 3.027 4.939-2.677 1.083-4.206 3.441-4.206 6.373 0 3.823 3.473 7.264 8.54 7.264Zm-5.926-7.264c0-2.613 2.485-5.098 5.926-5.098 3.441 0 5.927 2.485 5.927 5.098 0 2.326-2.358 4.683-5.927 4.683-3.569 0-5.926-2.357-5.926-4.683Zm1.083-11.567c0-1.943 1.784-3.727 4.843-3.727s4.843 1.784 4.843 3.727c0 2.135-1.943 4.079-4.843 4.079s-4.843-1.944-4.843-4.079Zm17.158 18.831c1.116 0 1.944-.924 1.944-1.975 0-1.084-.828-1.912-1.944-1.912-1.05 0-1.943.828-1.943 1.912 0 1.051.892 1.975 1.944 1.975Zm4.994-.478h2.899l9.527-22.272v-2.007H77.055v2.517h13.032l-9.463 21.762Zm20.19.478c4.27 0 6.946-1.848 6.946-4.779 0-2.422-1.689-4.174-4.716-4.939l-3.122-.796c-2.39-.606-3.728-1.625-3.728-2.9 0-1.752 1.561-2.868 4.078-2.868 2.199 0 4.206 1.434 4.461 3.25h2.74c-.35-2.995-3.409-5.352-6.978-5.352-4.078 0-6.659 1.943-6.659 5.034 0 2.23 1.816 3.919 5.034 4.716l3.091.764c2.39.606 3.441 1.53 3.441 2.868 0 1.784-1.689 2.867-4.397 2.867-2.676 0-4.716-1.465-4.97-3.536h-2.709c.255 3.345 3.346 5.671 7.488 5.671ZM35.274 158.96h2.323v-8.875h3.957v-2.05H31.288v2.05h3.986v8.875Zm7.264 0h2.194v-7.914h-2.194v7.914Zm-.215-9.821c0 .674.559 1.19 1.319 1.19.745 0 1.319-.516 1.319-1.19 0-.674-.574-1.162-1.32-1.162-.76 0-1.318.488-1.318 1.162Zm14.849 5.577v4.244h2.208v-4.33c0-2.365-1.147-3.799-3.068-3.799-1.276 0-2.251.645-2.724 1.735-.488-1.104-1.406-1.735-2.639-1.735-.975 0-1.763.401-2.28 1.104v-.889h-2.193v7.914h2.194v-4.143c0-1.434.544-2.122 1.663-2.122.99 0 1.563.745 1.563 2.021v4.244h2.064v-4.143c0-1.377.574-2.122 1.62-2.122 1.004 0 1.592.745 1.592 2.021Zm7.74 4.46c2.236 0 3.828-1.348 3.9-2.968h-2.194c-.158.659-.846 1.104-1.692 1.104-1.133 0-1.821-.646-1.95-1.85h5.893v-.258c0-3.212-1.993-4.373-4.058-4.373-2.58 0-4.043 1.892-4.043 4.172 0 2.538 1.548 4.173 4.144 4.173Zm-1.85-5.105c.258-.874.875-1.434 1.75-1.434.917 0 1.562.574 1.763 1.434h-3.513Zm14.506 5.105c.717 0 1.462-.287 1.806-.674v-1.592c-.286.258-.673.43-1.09.43-.63 0-.888-.315-.888-1.032v-3.427h1.978v-1.835h-1.978v-2.008h-2.194v2.008h-1.233v1.835h1.233v3.828c0 1.563.86 2.467 2.366 2.467Zm6.72 0c2.538 0 4.216-1.793 4.216-4.173 0-2.495-1.764-4.172-4.216-4.172-2.537 0-4.215 1.806-4.215 4.172 0 2.495 1.75 4.173 4.215 4.173Zm-2.036-4.173c0-1.362.818-2.308 2.036-2.308 1.205 0 2.036.946 2.036 2.308 0 1.377-.817 2.309-2.036 2.309-1.218 0-2.036-.918-2.036-2.309Zm17.266 4.173c2.681 0 4.746-1.592 5.118-3.915h-2.466c-.301 1.133-1.319 1.85-2.652 1.85-1.721 0-3.026-1.448-3.026-3.613 0-2.137 1.276-3.614 3.026-3.614 1.347 0 2.351.689 2.623 1.807h2.495c-.358-2.294-2.423-3.871-5.118-3.871-3.398 0-5.449 2.523-5.449 5.678 0 3.398 2.194 5.678 5.449 5.678Zm6.21-.216h2.194v-10.925h-2.194v10.925Zm3.938 0h2.194v-7.914h-2.194v7.914Zm-.215-9.821c0 .674.559 1.19 1.319 1.19.746 0 1.319-.516 1.319-1.19 0-.674-.573-1.162-1.319-1.162-.76 0-1.319.488-1.319 1.162Zm7.981 10.037c2.123 0 3.685-1.32 3.9-3.141h-2.208c-.143.789-.817 1.277-1.692 1.277-1.118 0-1.964-.904-1.964-2.309 0-1.391.817-2.308 1.964-2.308.846 0 1.535.473 1.678 1.247h2.222c-.229-1.864-1.835-3.111-3.9-3.111-2.566 0-4.143 1.892-4.143 4.172 0 2.452 1.706 4.173 4.143 4.173Zm5.067-.216h2.194v-2.05l1.261-1.262 2.338 3.312h2.494l-3.484-4.659 3.341-3.255h-2.782l-3.168 3.14v-6.151h-2.194v10.925Z" fill="#061492"></path></svg>