<svg width="324" height="202" viewBox="0 0 324 202" fill="none" xmlns="http://www.w3.org/2000/svg"><rect width="324" height="202" rx="32" fill="#70764D"></rect><path opacity="0.25" d="M37.754 55.257v88.487M57.549 55.256v88.488M77.188 55.256v88.488M96.822 55.256v88.488M116.461 55.256v88.488M136.1 55.256v88.488M155.738 55.256v88.488" stroke="#fff" stroke-width="2.36"></path><path d="M38.541 141.581c19.912 0 13.407-56.409 26.071-56.409 12.664 0 8.574 41.307 21.726 41.307 13.151 0 10.242-27.549 22.428-27.549 9.298 0 18.385 7.951 23.563-4.798 5.178-12.75 6.596-37.5 23.41-37.5" stroke="#D2E823" stroke-width="2.212" stroke-linecap="square" stroke-linejoin="round"></path><path d="M217.267 71.261c2.873 0 5.086 1.08 6.638 3.24 1.553 2.14 2.329 5.192 2.329 9.156 0 4.007-.818 7.1-2.454 9.282-1.615 2.16-3.902 3.24-6.859 3.24-2.077 0-3.818-.566-5.223-1.698-1.384-1.154-2.255-2.727-2.611-4.72h2.705c.231 1.3.787 2.307 1.668 3.02.902.714 2.055 1.07 3.461 1.07 2.055 0 3.691-.87 4.908-2.611 1.237-1.762 1.972-4.29 2.202-7.583-.503 1.238-1.395 2.245-2.674 3.02-1.259.756-2.664 1.133-4.216 1.133-1.678 0-3.136-.335-4.373-1.006a6.97 6.97 0 0 1-2.863-2.863c-.672-1.238-1.007-2.696-1.007-4.374 0-1.699.335-3.167 1.007-4.404a7.07 7.07 0 0 1 2.926-2.895c1.258-.671 2.737-1.007 4.436-1.007Zm-5.758 8.306c0 1.133.252 2.15.755 3.052a5.427 5.427 0 0 0 2.077 2.108c.902.504 1.919.755 3.052.755 1.132 0 2.139-.251 3.02-.755a5.204 5.204 0 0 0 2.045-2.108c.504-.902.755-1.92.755-3.052 0-1.153-.251-2.181-.755-3.083a5.157 5.157 0 0 0-2.045-2.14c-.881-.524-1.888-.786-3.02-.786-1.133 0-2.15.262-3.052.786a5.372 5.372 0 0 0-2.077 2.14c-.503.902-.755 1.93-.755 3.083Zm23.418-3.65a5.132 5.132 0 0 1-1.887 1.29c-.714.294-1.511.441-2.392.441h-1.195v-2.454h.912c1.427 0 2.538-.283 3.335-.85.818-.587 1.227-1.447 1.227-2.58v-.03h2.58v23.974h-2.58v-19.79Zm9.546 4.06a4.183 4.183 0 0 1-2.139-.567 4.344 4.344 0 0 1-1.542-1.605 4.411 4.411 0 0 1-.566-2.202c0-.797.188-1.52.566-2.17a4.106 4.106 0 0 1 1.542-1.574 4.015 4.015 0 0 1 2.139-.598c.776 0 1.489.2 2.139.598a4.106 4.106 0 0 1 1.542 1.573 4.24 4.24 0 0 1 .566 2.171c0 .797-.188 1.531-.566 2.202a4.344 4.344 0 0 1-1.542 1.605 4.183 4.183 0 0 1-2.139.566Zm-2.234-4.374c0 .65.21 1.196.629 1.636.441.44.986.66 1.636.66.609 0 1.123-.22 1.542-.66.441-.44.661-.986.661-1.636 0-.65-.22-1.196-.661-1.636-.44-.462-.965-.692-1.573-.692-.629 0-1.164.23-1.605.692-.419.44-.629.986-.629 1.636Zm14.221-3.87h2.989l-16.832 23.974h-3.021l16.864-23.974Zm-1.888 24.447a4.182 4.182 0 0 1-2.139-.567 4.36 4.36 0 0 1-1.542-1.605 4.421 4.421 0 0 1-.566-2.202c0-.797.189-1.52.566-2.17a4.121 4.121 0 0 1 1.542-1.574 4.014 4.014 0 0 1 2.139-.598c.777 0 1.49.2 2.14.598.65.378 1.164.902 1.542 1.573a4.25 4.25 0 0 1 .566 2.171c0 .797-.189 1.531-.566 2.203a4.36 4.36 0 0 1-1.542 1.604 4.183 4.183 0 0 1-2.14.567Zm-2.233-4.374c0 .65.209 1.196.629 1.636.44.44.986.66 1.636.66.608 0 1.122-.22 1.542-.66.44-.44.66-.986.66-1.636 0-.65-.22-1.195-.66-1.636-.441-.461-.965-.692-1.574-.692-.629 0-1.164.23-1.604.692-.42.44-.629.986-.629 1.636ZM223.575 132.505c2.648 0 4.687-1.572 5.055-3.865h-2.435c-.298 1.118-1.303 1.826-2.62 1.826-1.699 0-2.987-1.43-2.987-3.568 0-2.109 1.26-3.568 2.987-3.568 1.331 0 2.322.68 2.591 1.784h2.464c-.354-2.265-2.393-3.822-5.055-3.822-3.355 0-5.38 2.491-5.38 5.606 0 3.356 2.167 5.607 5.38 5.607Zm9.264-.213h2.294v-8.763h3.908v-2.025h-10.138v2.025h3.936v8.763Zm14.152 0h2.591l-2.563-4.091c1.204-.567 1.926-1.699 1.926-3.143 0-2.11-1.572-3.554-3.894-3.554h-4.672v10.788h2.28v-3.681h2.194l2.138 3.681Zm-4.332-5.677V123.5h2.35c.977 0 1.642.623 1.642 1.558 0 .92-.665 1.557-1.642 1.557h-2.35Z" fill="#D2E823"></path></svg>