<svg xmlns="http://www.w3.org/2000/svg" fill="none" viewBox="0 0 50 58"><path fill="#061492" fill-rule="evenodd" d="M27.72.052c-.005.01-.046.023-.09.03a.6.6 0 0 0-.143.049l-.065.035h-.195l-.067.037a.3.3 0 0 1-.102.037c-.02 0-.04.009-.047.019s-.03.018-.05.018c-.023 0-.07.01-.107.024l-.066.023-.069.07a.3.3 0 0 1-.087.07.5.5 0 0 0-.113.093.5.5 0 0 1-.11.093c-.025 0-.097-.067-.097-.09V.538h-.08l-.053.056-.053.056h-.046a.32.32 0 0 1-.186-.079c-.02-.018-.042-.033-.05-.033-.027 0-.11.044-.11.057a.4.4 0 0 1-.12.063l-.122.048h-.109l-.029.029-.028.028.015.042a.1.1 0 0 1 .007.064l-.008.024h-.238L25.057.87C25.03.86 25.006.84 25 .825c-.013-.033.006-.082.03-.082h.02l-.022-.025-.021-.026-.075-.012a1 1 0 0 1-.195-.06l-.12-.048V.538h-.067a.3.3 0 0 0-.1.019.6.6 0 0 1-.138.03l-.103.012-.048-.012-.048-.012V.522L24.076.51 24.038.5l-.037.011-.037.012V.59l-.029.024-.028.023L23.8.605l-.106-.033-.092.003-.092.003-.055.029-.055.028-.045-.02a.3.3 0 0 0-.115-.02h-.069l-.093.073a1.2 1.2 0 0 0-.28.287l-.05.07-.03.049-.087.04-.087.041-.087-.005-.086-.006-.02-.04c-.035-.07-.091-.137-.116-.137-.023 0-.044-.009-.13-.053l-.042-.021h-.315l-.011.018-.012.019H21.6l-.012.018-.011.02h-.107l-.012.018c-.006.01-.028.018-.048.018s-.036.007-.036.014c0 .008-.027.024-.06.036-.034.011-.111.04-.173.063l-.112.042-.079.067-.079.066v.066h-.289l-.075-.02-.074-.02-.047-.043a.3.3 0 0 0-.088-.055l-.042-.013-.037.012-.038.012v.176l-.023.05c-.013.028-.03.05-.037.05-.008 0-.014.013-.014.028a.4.4 0 0 1-.037.107 2 2 0 0 0-.067.189l-.03.108-.05.05a.5.5 0 0 0-.078.106.4.4 0 0 1-.05.08l-.025.026-.046-.012-.046-.011v-.02c0-.01-.013-.032-.029-.048l-.028-.029-.038.044a.3.3 0 0 0-.048.094.2.2 0 0 1-.04.078l-.115.105-.084.077-.141-.005-.142-.005-.052.041-.052.041h-.088v.038h-.075v.037h-.06l-.049.051-.05.051-.056.02-.057.02-.036-.013a.4.4 0 0 0-.105-.016l-.07-.001-.01.018c-.007.01-.026.019-.044.019h-.031l-.103.084a1 1 0 0 1-.113.084c-.021 0-.092.07-.092.09q-.001.02-.018.022h-.019v.086l-.034.036a.3.3 0 0 0-.045.066l-.011.03-.087.022c-.048.012-.124.04-.17.06l-.082.04v.126h-.018q-.017.001-.019.016a.6.6 0 0 1-.1.12 2 2 0 0 0-.13.15l-.032.049h-.393l.003.06a1 1 0 0 1 .002.1l-.002.04-.048.02c-.064.03-.103.028-.175-.008l-.061-.03-.105.048-.105.048-.205.007-.205.008-.103.035a.6.6 0 0 0-.144.071l-.042.036v.179l-.044.136-.044.135.01.21.008.21-.023.028-.024.028h-.04a.3.3 0 0 1-.092-.028.3.3 0 0 0-.071-.028c-.026 0-.071.049-.072.078 0 .013-.022.04-.047.058l-.047.034-.143.002-.143.001-.038.04a.4.4 0 0 0-.085.2v.03l-.029.011-.03.012-.034-.019c-.082-.044-.17-.017-.28.084l-.065.06-.056.013c-.09.02-.26.073-.27.084a1 1 0 0 1-.098.056c-.048.024-.088.051-.088.06s-.01.016-.02.016c-.012 0-.045.025-.073.056-.03.03-.062.056-.074.056a.3.3 0 0 0-.076.028l-.055.028-.028.055-.028.055v.246l-.022.04q-.047.089-.103.088h-.034l-.037.05a1 1 0 0 1-.062.074l-.025.025h-.062a.3.3 0 0 0-.092.012l-.03.01v.142l-.029.011a.4.4 0 0 1-.098.012.2.2 0 0 0-.088.014 1 1 0 0 0-.138.202.4.4 0 0 1-.075.084.3.3 0 0 0-.075.09.02.02 0 0 1-.018.02h-.019v.074h-.038v.086l-.034.038a.5.5 0 0 0-.058.081c-.035.065-.053.087-.182.214a.6.6 0 0 0-.117.137q-.001.02-.018.022h-.019v.096l-.026.027-.027.026H11.7v-.016c0-.01-.013-.022-.03-.029l-.03-.011-.08.05-.08.051-.013.066-.012.065-.073.087a.4.4 0 0 0-.073.108q-.002.018-.019.02h-.018v.056h-.02c-.01 0-.018.01-.018.02a.3.3 0 0 1-.076.094l-.077.074-.003.19-.003.19-.017.029a1 1 0 0 1-.101.124l-.045.047-.017.152c-.01.084-.026.2-.037.258l-.02.106-.09.024c-.05.012-.092.03-.092.037s-.017.02-.038.026a.4.4 0 0 0-.1.072l-.062.06-.053.101-.052.102-.001.127-.001.127.062.051.063.051-.007.044-.006.043-.033.02-.032.021-.089-.034a1 1 0 0 0-.136-.043l-.048-.01-.057.048-.057.048-.068.129a.7.7 0 0 0-.067.165v.036l.055.05c.031.027.066.05.078.05s.032.014.046.032l.024.033.001.162v.162l-.018.011-.019.012v.14l.035.037.035.038.003.218.002.217-.016.033c-.055.107-.066.159-.09.399l-.01.106-.06.07-.06.07-.075-.004-.073-.004-.041.035-.041.036v.06h-.019c-.01 0-.018.011-.018.025 0 .034-.044.124-.06.124-.009 0-.015.017-.015.038s-.006.037-.014.037-.03.025-.048.055l-.032.055.012.048.012.047h-.075l-.011.03c-.007.016-.007.037-.001.046l.01.017h.11v.056h.037v.224H9.5v.056l-.022.002-.05.005-.025.002-.035.065a.3.3 0 0 0-.035.093c0 .016-.009.06-.02.098l-.019.07h-.052l-.011.038c-.007.02-.02.037-.028.037h-.015l-.012.064-.012.065.06.117c.032.064.07.163.082.218l.024.101-.01.096-.01.095.04.082c.021.045.039.093.039.107s.006.024.014.024c.02 0 .06.094.06.143v.043h.038v.203l.019.012.018.011v.166h.037v.074h-.037v.044c0 .024-.013.07-.03.103l-.029.06.013.073.012.074h.034v.075h.037v.112h-.037v.026a.8.8 0 0 1-.094.198 2 2 0 0 0-.088.14l-.079.132v.083l.001.082.035.094.058.15.024.058-.025.115-.026.115H9.33c-.008 0-.015.013-.015.028v.03l.075.07.075.07v.18l-.04.034a.3.3 0 0 1-.072.044l-.032.01-.021.048c-.031.067-.03.078.037.213l.075.153a.4.4 0 0 1 .015.126v.094l-.056.111-.056.11v.151h-.013c-.024 0-.11.081-.133.125l-.021.04v.171h.015c.008 0 .03.037.049.083l.034.084.058.044a1 1 0 0 0 .121.077.5.5 0 0 1 .108.076l.043.044v.058h.038v.055l.065.07a.3.3 0 0 1 .065.084c0 .008.025.048.055.09l.055.075.012.058c.007.032.05.13.095.216s.081.169.081.183v.026h.038v.056h.037v.056h.019q.017.002.018.024c0 .014.016.042.036.063a1 1 0 0 1 .087.139l.052.1.016.102c.009.057.018.128.02.159l.003.056.033.03.033.03v.129l-.065.072a.6.6 0 0 0-.086.125c-.012.029-.027.052-.035.052-.007 0-.033.042-.056.093-.025.051-.051.093-.06.093-.008 0-.015.013-.015.028a.3.3 0 0 1-.056.121 1 1 0 0 0-.07.121c-.074.138-.132.344-.248.877a1 1 0 0 1-.037.13.3.3 0 0 0-.024.084q-.023.151-.05.214a.9.9 0 0 0-.05.266l-.009.116h-.034v.254l-.017.017-.016.018-.014.14a5 5 0 0 0 0 .732l.015.107.016.01.016.01v.11h.034l.01.107.021.238.011.13.018.018c.01.01.018.034.018.055s.016.083.035.14.058.206.084.33l.049.225.054.138c.029.076.072.2.096.274a.6.6 0 0 0 .058.146c.009.005.015.03.015.055v.045h.038v.091l.018.012c.01.006.019.027.019.047v.037h.037v.111h.014c.008 0 .034.066.058.145.024.08.051.161.06.182s.037.096.062.167c.097.288.174.49.218.573.01.018.017.045.017.06v.029h.038v.112h.036v.093h.02q.017.002.018.024c0 .025.11.259.129.274.006.005.04.064.074.13.035.067.1.179.144.248.045.07.081.135.081.145q.002.016.019.018t.019.024c0 .014.016.043.037.065s.037.053.037.068.008.03.017.03.03.027.046.062c.055.116.242.362.398.526a.2.2 0 0 1 .042.054.6.6 0 0 0 .08.093c.043.045.117.125.163.177a2 2 0 0 0 .248.247.7.7 0 0 0 .107.089c.007 0 .037.023.068.051.03.028.079.068.108.089s.062.045.074.056a.3.3 0 0 0 .13.065h.029v.038h.066l.027.036.027.038h.066v.017c0 .01.017.023.038.03s.06.031.09.055l.052.044.129.05c.071.029.137.059.147.067a.1.1 0 0 0 .051.016h.034v.038h.109l.012.018.011.019h.126l.012.019.011.018h.089l.012.019.011.018h.334v.038h.503v-.038h.036c.02 0 .041-.008.048-.018a.04.04 0 0 1 .033-.019c.03 0 .125.083.125.108a1 1 0 0 0 .093.19.4.4 0 0 1 .036.06.5.5 0 0 0 .06.088c.02.02.035.048.035.062s.017.036.037.051l.037.027v.032c0 .017.008.034.017.038s.08.14.16.304c.078.164.159.33.179.37s.036.088.036.107v.036h.037v.093h.037v.093h.015c.008 0 .026.04.04.089a.4.4 0 0 0 .038.097c.006.006.039.098.073.205.033.108.07.217.08.242.03.077.102.302.127.401.013.052.039.14.058.197s.035.122.035.145v.04h.037v.11l.02.012.018.011v.11h.038v.112h.032l.012.065.022.13c.007.036.02.07.028.076.01.006.017.03.017.055s.007.064.017.087c.009.024.039.148.066.276l.085.392c.04.181.064.32.093.53.011.083.028.18.037.215.01.036.022.111.027.168.006.056.02.157.03.224.038.24.057.405.074.643.01.133.026.33.037.438l.02.195.01.535.01.536-.1.1a5 5 0 0 0-.173.19l-.126.144a.2.2 0 0 0-.051.072.4.4 0 0 1-.084.1.6.6 0 0 0-.084.094.6.6 0 0 1-.08.09c-.043.044-.1.107-.125.14l-.093.116a1.5 1.5 0 0 0-.149.194.6.6 0 0 1-.078.1c-.009.003-.015.022-.015.042v.035h-.02c-.01 0-.018.012-.018.025s-.017.042-.037.064-.037.053-.037.07c0 .015-.007.028-.016.028-.033 0-.19.378-.274.662a1 1 0 0 1-.046.125.2.2 0 0 0-.018.069c0 .02-.009.042-.019.048l-.019.011v.091h-.037v.075h-.037v.112h-.037v.091l-.02.011c-.01.007-.018.028-.018.048v.036h-.037v.03c0 .017-.025.108-.056.2l-.057.17-.105.21c-.058.116-.112.21-.12.21H14.7v.075h-.037v.036c0 .02-.009.041-.02.048-.01.006-.018.028-.018.047v.037h-.037v.111h-.037v.037c0 .02-.009.04-.019.047l-.018.012v.091h-.038v.035c0 .02-.016.068-.035.108-.062.128-.155.35-.165.393-.005.023-.017.042-.026.042s-.016.012-.016.028a.5.5 0 0 1-.04.116l-.057.135-.036.08a.2.2 0 0 0-.016.069v.038h-.037v.074h-.016c-.008 0-.026.042-.04.093s-.033.093-.041.093-.015.012-.015.027a.4.4 0 0 1-.036.097 2 2 0 0 0-.113.266c0 .009-.038.096-.084.195a2 2 0 0 0-.084.194.5.5 0 0 1-.037.093.4.4 0 0 0-.038.106v.029h-.037v.074h-.037v.075h-.037v.036c0 .02-.009.042-.02.048-.01.006-.018.028-.018.048s-.006.036-.014.036-.03.025-.048.056a.5.5 0 0 1-.073.093l-.04.037h-.086v.037h-.067l-.04.038c-.022.02-.053.037-.069.037h-.029v.037H12.9c-.037 0-.537.242-.545.263l-.007.017h-.087l-.012.019c-.006.01-.028.018-.048.018h-.036v.037h-.034c-.041 0-.133.042-.133.061 0 .008-.012.014-.027.014-.024 0-.087.028-.256.114a.4.4 0 0 1-.087.035c-.019 0-.347.147-.418.187a.14.14 0 0 1-.052.018.4.4 0 0 0-.097.037.4.4 0 0 1-.098.038c-.031 0-.12.044-.121.06v.014h-.112v.038h-.075v.037h-.074v.037h-.075v.037h-.042l-.042.001-.046.037a.2.2 0 0 1-.079.037.3.3 0 0 0-.093.037.3.3 0 0 1-.094.037h-.032v.017c0 .008-.04.03-.089.05a1 1 0 0 0-.146.065c-.073.04-.139.075-.175.092a1 1 0 0 0-.13.075l-.066.037a4 4 0 0 0-.475.28 1 1 0 0 1-.094.054.6.6 0 0 0-.111.076.3.3 0 0 1-.089.057c-.033.015-.06.033-.06.04 0 .009-.015.015-.034.015h-.033l-.027.037-.027.037h-.066v.038H8.42c-.02 0-.037.006-.038.014 0 .007-.027.031-.06.053l-.194.126a1 1 0 0 1-.153.086q-.02.002-.021.017c0 .009-.025.026-.056.04-.03.012-.056.028-.056.035s-.023.026-.05.04a.6.6 0 0 0-.106.078c-.03.028-.064.051-.076.051s-.033.017-.047.037c-.015.02-.038.038-.051.038s-.024.006-.024.014c0 .007-.032.035-.07.06a1 1 0 0 0-.16.121c-.022.02-.072.059-.11.084s-.07.053-.07.06c0 .008-.013.015-.028.015h-.028v.038h-.056v.036H6.91v.038l-.18-.002-.179-.002-.011.017c-.013.02-.106.037-.329.061-.2.022-.297.043-.418.092l-.102.041-.146.017-.145.016-.103.057a.5.5 0 0 1-.13.057H5.14v.038h-.112v.036h-.112v.038h-.112v.037h-.093v.016c0 .01-.015.022-.033.028l-.107.039a.4.4 0 0 1-.108.028c-.031 0-.076.02-.233.103l-.061.032-.172.015-.172.014-.084.038c-.137.061-.122.057-.423.11-.034.005-.066.017-.071.026-.006.01-.027.017-.047.017h-.036v.037h-.091l-.012.019-.011.018h-.11v.038h-.149v.037H2.7l-.011.019-.012.018h-.573l-.09.018c-.049.01-.14.026-.204.037a1 1 0 0 0-.175.05 2 2 0 0 1-.175.072 2 2 0 0 0-.154.062l-.04.022-.03.059-.029.059v.278l-.06-.01a1 1 0 0 1-.1-.022l-.039-.012-.059.05-.059.049v.088l.075.044.074.044-.05.027a.6.6 0 0 0-.146.106c-.014.013-.034.023-.045.023s-.02.008-.02.019v.018H.712l-.027-.037-.027-.037h-.08l-.012.03-.011.029v19.027h49.54l-.001-11.887V48.262l-.016-.025-.016-.025-.077.024c-.042.012-.077.029-.077.036 0 .008-.028.02-.062.026l-.061.011-.097-.029-.098-.029-.104.02-.104.019-.018-.011a2 2 0 0 0-.18-.047l-.161-.035-.224-.018-.224-.019-.149-.036-.199-.047-.049-.01-.107-.103-.107-.103h-.025c-.014 0-.026-.006-.026-.014 0-.018-.177-.06-.255-.06H47.6l-.007.02-.007.022-.104-.024-.105-.023-.058.026c-.032.014-.058.032-.058.04 0 .007-.015.013-.033.013h-.034l-.071-.065-.072-.065-.03-.002c-.157-.008-.205-.014-.236-.031l-.14-.07-.105-.05-.073-.001a3 3 0 0 0-.25.013l-.178.015-.154-.03-.154-.032-.067-.038a.6.6 0 0 1-.116-.088.5.5 0 0 0-.1-.076c-.028-.014-.05-.034-.05-.042s-.09-.102-.199-.207-.25-.24-.312-.303a2 2 0 0 0-.18-.157 1 1 0 0 1-.092-.076 1.4 1.4 0 0 0-.317-.206c-.051-.023-.093-.05-.093-.058v-.015h-.094v-.037h-.093v-.037h-.052c-.029 0-.06-.007-.07-.016-.017-.014-.067-.03-.241-.075-.19-.05-.775-.061-1.128-.023a8 8 0 0 1-.456.034l-.222.007-.038-.018a1 1 0 0 0-.132-.041.4.4 0 0 1-.102-.035 1 1 0 0 0-.112-.06l-.51-.242-.072-.035h-.108v-.037h-.147l-.011-.019-.012-.018h-.083a.3.3 0 0 1-.115-.017 4 4 0 0 0-.433-.132 1 1 0 0 1-.13-.038 3 3 0 0 0-.355-.111 1 1 0 0 1-.177-.057 2 2 0 0 0-.149-.056 1 1 0 0 1-.107-.039.2.2 0 0 0-.07-.016h-.037v-.037h-.056v-.038h-.056v-.037h-.028a.25.25 0 0 1-.121-.058.7.7 0 0 0-.19-.091.3.3 0 0 1-.09-.044 1.3 1.3 0 0 0-.196-.095 4 4 0 0 1-.222-.096.5.5 0 0 0-.125-.045c-.018 0-.038-.008-.044-.018s-.028-.019-.048-.019h-.036v-.019c0-.01-.01-.018-.02-.018-.028 0-.148-.132-.148-.162q-.002-.023-.018-.025h-.019v-.035c0-.02-.006-.039-.014-.042a1 1 0 0 1-.097-.174 3 3 0 0 0-.098-.187 1.5 1.5 0 0 1-.15-.251l-.037-.084v-.212l.026-.03.084-.09c.067-.07.137-.187.137-.228v-.027h.037v-.112h.038v-.091l.018-.012c.01-.006.019-.027.019-.047v-.036h.037v-.037a.3.3 0 0 1 .038-.103.3.3 0 0 0 .037-.103c0-.02.006-.037.014-.037a.5.5 0 0 0 .057-.145c.025-.079.069-.205.099-.28.094-.234.148-.42.178-.614.006-.034.017-.066.027-.071l.016-.01v-.11h.037v-.131h.038v-.111h.037v-.112h.037v-.047c0-.026.008-.061.017-.08.03-.058.054-.123.096-.255.022-.072.052-.158.067-.192.014-.034.043-.113.064-.175.036-.108.094-.25.13-.318a.2.2 0 0 0 .018-.08v-.046h.015c.008 0 .027-.042.04-.093.015-.052.033-.093.041-.093h.016v-.037c0-.02.008-.041.018-.047.01-.007.019-.028.019-.048v-.036h.038v-.037c0-.02.016-.064.036-.098a.3.3 0 0 0 .038-.094v-.032h.037v-.075h.038v-.033a.1.1 0 0 1 .016-.052c.024-.024.188-.402.188-.431q.002-.023.019-.024h.019v-.075h.037v-.074h.037v-.075h.037v-.075h.019a.02.02 0 0 0 .019-.02c0-.01.088-.199.195-.418.108-.22.196-.411.196-.427v-.03h.037v-.09l.019-.012c.01-.006.018-.027.018-.047s.007-.037.016-.037c.008 0 .026-.029.04-.065s.033-.065.041-.065h.015v-.075h.038v-.074h.037v-.026c0-.023.072-.191.167-.386a.5.5 0 0 0 .038-.095 1 1 0 0 1 .04-.104l.057-.135.036-.079a.3.3 0 0 0 .016-.107v-.075h.037v-.04c0-.041.038-.166.056-.183a.4.4 0 0 0 .034-.084c.027-.081.037-.106.093-.234.02-.047.077-.19.125-.317.047-.127.103-.267.123-.31a.4.4 0 0 0 .035-.108v-.028h.038v-.075h.037v-.112h.038v-.036c0-.02.008-.041.018-.047.01-.007.018-.028.018-.048v-.036h.038v-.112h.014c.008 0 .026-.04.04-.089.028-.097.082-.22.214-.487.047-.096.086-.19.086-.209s.008-.038.018-.045.019-.027.019-.047v-.036h.037v-.094h.038v-.026c0-.03.231-.488.269-.533a1 1 0 0 0 .075-.14l.087-.183a.4.4 0 0 0 .035-.098v-.026h.037v-.075h.038v-.112h.014c.009 0 .027-.041.041-.093.014-.051.03-.093.036-.093.007 0 .023-.04.038-.088a1 1 0 0 1 .073-.188c.062-.127.198-.642.23-.87.009-.072.025-.21.034-.308l.039-.4.022-.224v-.522c0-.287-.007-.616-.015-.732l-.014-.21-.017-.01-.016-.01v-.077a.6.6 0 0 0-.017-.134 2 2 0 0 1-.038-.225 6 6 0 0 0-.048-.307l-.064-.345a6 6 0 0 0-.096-.444.4.4 0 0 0-.038-.117c-.009-.006-.016-.03-.016-.054v-.045l-.018-.011c-.01-.007-.02-.028-.02-.048v-.036h-.036v-.112h-.038v-.112h-.037v-.112h-.037v-.093h-.037v-.112h-.015c-.008 0-.026-.04-.04-.088a5 5 0 0 0-.105-.303 11 11 0 0 1-.11-.308 2 2 0 0 0-.06-.158l-.047-.112-.036-.079a.2.2 0 0 1-.016-.069c0-.02-.009-.041-.019-.047l-.018-.012v-.147h-.038v-.165l-.016-.01c-.01-.006-.022-.038-.027-.072a1.6 1.6 0 0 0-.077-.324l-.031-.078.006-.062.006-.061.074-.042c.068-.039.117-.056.354-.123.088-.025.102-.041.103-.116 0-.064.033-.167.075-.234a1 1 0 0 0 .053-.101l.042-.089.016-.032v-.278l-.033-.01-.032-.011-.042-.065-.042-.065v-.129l-.044-.043-.086-.076-.04-.034-.032.024c-.044.035-.096.093-.096.108a.2.2 0 0 1-.035.054l-.035.04h-.06l-.002-.033c-.002-.018 0-.066.001-.107l.004-.075.017-.006.017-.006v-.088l.018-.011.019-.012v-.107l.018-.012c.01-.006.02-.03.02-.051 0-.037.055-.217.093-.303.026-.06.123-.36.169-.522.065-.232.103-.486.13-.857.01-.144.027-.332.038-.42l.02-.158.008-.494.008-.494-.019-.042a3 3 0 0 1-.076-.186c-.012-.034-.029-.06-.036-.06-.008 0-.02-.024-.025-.052a.3.3 0 0 0-.04-.089l-.097-.14a1 1 0 0 0-.08-.111.7.7 0 0 1-.094-.198v-.026h-.037v-.093h-.037v-.075h-.038v-.028a.2.2 0 0 0-.016-.06 1.3 1.3 0 0 1-.115-.359 4 4 0 0 0-.088-.327 5 5 0 0 1-.096-.344 4 4 0 0 0-.063-.242l-.021-.066-.003-.326c-.003-.327-.016-.457-.047-.476-.01-.006-.017-.03-.017-.055v-.044l-.018-.012c-.01-.006-.019-.027-.019-.047v-.037h-.033l-.01-.06-.023-.126a1 1 0 0 0-.059-.168 1 1 0 0 1-.098-.31.4.4 0 0 0-.038-.123l-.037-.084.01-.082.012-.081-.058-.11-.057-.108v-.139l-.038-.04-.037-.04v-.122l-.037-.047a.2.2 0 0 1-.037-.075c0-.039-.043-.13-.061-.13h-.014v-.277l-.019-.012c-.01-.006-.018-.028-.018-.048 0-.055-.035-.112-.148-.24l-.073-.082-.032-.085a.5.5 0 0 0-.048-.103l-.016-.018v-.075c0-.042-.01-.143-.022-.225l-.023-.149-.052-.1-.052-.1v-.166l.02-.038.02-.038-.02-.02-.02-.02v-.105h-.038v-.056h-.019c-.026 0-.13-.167-.13-.208v-.034h-.032l-.012-.07-.03-.163-.045-.252c-.042-.25-.058-.303-.144-.47a.2.2 0 0 1-.016-.052c0-.026-.086-.111-.112-.111s-.064-.037-.08-.08l-.012-.032h-.048l-.073-.117a2 2 0 0 0-.146-.2.7.7 0 0 1-.124-.173c-.015-.028-.033-.05-.04-.05h-.014l.015-.052c.009-.028.025-.091.036-.14l.02-.089v-.81l-.026-.073-.025-.073-.06-.067a.33.33 0 0 1-.103-.25l-.004-.089-.021-.021a.1.1 0 0 1-.022-.064c0-.043-.013-.08-.087-.245l-.044-.099-.046-.046c-.026-.026-.047-.054-.047-.062 0-.032-.104-.128-.181-.167l-.078-.04H37.8l-.04-.043c-.023-.023-.041-.053-.041-.065s-.009-.022-.019-.022h-.019v-.028a.2.2 0 0 0-.016-.06.7.7 0 0 1-.058-.206c0-.022-.009-.044-.019-.05l-.019-.012V6.3l-.018-.012-.019-.011v-.091h-.037v-.093h-.037v-.03c0-.015-.017-.045-.036-.066l-.036-.039-.022-.091a.3.3 0 0 0-.039-.102c-.009-.005-.016-.03-.016-.053v-.043l-.03-.025a.3.3 0 0 1-.056-.077l-.027-.052h-.122l-.023-.023-.022-.022v-.139l-.051-.044c-.056-.049-.098-.113-.098-.15 0-.027-.081-.125-.104-.125a.4.4 0 0 1-.088-.078l-.07-.078.003-.039a.3.3 0 0 0-.02-.094.6.6 0 0 1-.033-.127c-.005-.038-.017-.074-.026-.08-.009-.005-.016-.024-.016-.04v-.03l-.093-.088-.094-.088v-.108l-.04-.027a1 1 0 0 1-.098-.088l-.059-.06-.064-.012a.4.4 0 0 1-.111-.044 1 1 0 0 0-.108-.058l-.06-.026v-.103h-.037v-.168h-.038v-.055h-.037v-.068l-.037-.04-.038-.04-.05.01-.052.01-.068-.029-.067-.028-.011-.03-.011-.028h-.241l-.012.038-.012.037h-.081l-.023-.037-.023-.036.01-.055.012-.054-.058-.025-.058-.026v-.046l-.066-.028c-.072-.03-.12-.07-.12-.102 0-.01-.007-.02-.016-.02-.008 0-.034-.042-.057-.093s-.049-.093-.057-.093-.02-.02-.025-.042a2 2 0 0 0-.046-.145l-.036-.102-.075-.056a.5.5 0 0 1-.105-.104l-.029-.048-.08-.025a.5.5 0 0 1-.103-.043l-.023-.017-.098.012c-.054.007-.16.017-.235.022l-.136.01-.065-.03-.065-.032-.053.019-.052.018-.016-.012a.5.5 0 0 1-.064-.082.3.3 0 0 0-.073-.08l-.026-.01-.095.033a.3.3 0 0 0-.1.047c-.004.008-.027.014-.052.014h-.045V2.07c0-.025-.067-.096-.09-.096h-.022V1.95a.2.2 0 0 0-.037-.07.2.2 0 0 1-.037-.076c0-.042-.121-.154-.189-.176-.02-.006-.035-.019-.035-.028v-.018h-.074v-.038h-.072l-.007-.02-.006-.02-.154-.019-.153-.02v-.032h-.112v.037h-.098l-.036-.042a.4.4 0 0 1-.06-.097l-.024-.056-.049-.027-.05-.026-.023-.053-.023-.053h-.032a.3.3 0 0 1-.093-.037l-.061-.037h-.1l-.012-.019-.012-.019h-.11V.967h-.093V.93h-.317V.893h-.186V.855h-.028c-.015 0-.028-.006-.028-.014 0-.007-.034-.03-.076-.05l-.076-.036-.026-.038-.027-.038-.06.025a4 4 0 0 1-.41.122.2.2 0 0 0-.077.039l-.028.028h-.17v.074l-.06.002-.12-.001-.058-.003-.026.057-.025.057h-.094l-.027-.037c-.015-.02-.036-.038-.047-.038a.3.3 0 0 1-.09-.074.3.3 0 0 0-.091-.075.3.3 0 0 1-.081-.046l-.06-.046-.082-.019a2 2 0 0 0-.15-.029l-.068-.01-.048-.057-.047-.057V.43L28.28.404a.4.4 0 0 1-.054-.08.9.9 0 0 0-.25-.258l-.06-.03h-.186z" clip-rule="evenodd"/></svg>