<svg viewBox="0 0 951 865" fill="none" xmlns="http://www.w3.org/2000/svg"><path d="M367.568 707.81C361.409 714.34 356.991 722.279 354.711 730.913C352.904 736.55 350.354 741.927 347.126 746.907C343.725 744.612 339.855 743.081 335.79 742.423C331.725 741.765 327.563 741.996 323.598 743.099C318.969 728.501 325.269 716.822 324.498 703.875C324.318 691.742 326.098 679.658 329.769 668.078C328.316 666.854 326.536 666.07 324.642 665.823C322.749 665.575 320.823 665.873 319.098 666.682C285.927 680.264 253.142 694.608 219.329 707.048C198.927 716.024 176.068 717.99 154.401 712.634C153.387 711.968 152.515 711.111 151.837 710.112C151.158 709.114 150.686 707.993 150.447 706.813C150.208 705.634 150.208 704.421 150.445 703.241C150.682 702.061 151.153 700.939 151.83 699.94C154.426 695.443 157.439 691.194 160.83 687.246C178.585 667.813 199.977 651.951 223.828 640.533C226.293 639.109 228.58 637.404 230.642 635.455C224.6 629.996 215.343 629.489 212 619.714C217.786 611.971 227.943 611.337 236.943 609.052C245.942 606.767 254.299 606.259 262.656 604.99C264.812 605.607 267.077 605.756 269.296 605.428C271.515 605.099 273.636 604.3 275.513 603.085C271.513 601.208 267.038 600.546 262.656 601.182C251.309 598.053 239.752 595.72 228.071 594.2C222.87 593.302 217.939 591.263 213.644 588.231C209.349 585.199 205.8 581.252 203.258 576.683C208.881 570.133 215.791 564.778 223.571 560.942C219.902 557.832 215.158 556.241 210.329 556.499C193.159 556.762 176.179 552.93 160.83 545.329C150.93 541.013 147.973 538.093 141.03 525.78C133.059 521.21 125.473 524.51 117.888 524.383C101.688 524.383 85.7458 526.542 69.6747 527.303C54.4902 528.038 39.2706 527.571 24.1616 525.907C16.4475 525.019 9.63324 519.179 2.17627 519.814C0.422072 516.954 -0.303793 513.594 0.11618 510.277C0.536153 506.96 2.0775 503.88 4.4906 501.535C14.4619 488.132 28.812 478.537 45.1181 474.37C63.5805 468.756 82.758 465.764 102.074 465.484C109.274 465.484 116.345 464.342 123.545 463.707C134.798 466.248 146.412 466.85 157.873 465.484L123.545 459.518C117.76 458.324 112.051 456.798 106.445 454.948C95.7097 450.797 86.6681 443.254 80.7317 433.496C80.7317 430.449 80.7317 427.911 83.1745 426.768C91.1954 422.589 99.8999 419.839 108.888 418.644C128.045 416.994 147.459 418.644 166.873 418.644C182.686 418.644 199.015 420.802 214.829 419.786C219.176 420.003 223.487 420.684 227.686 421.818L245.685 424.991C247.099 421.056 245.042 420.167 242.985 418.644C234.885 412.932 226.014 408.869 217.272 403.919C204.014 397.341 192.848 387.283 185.001 374.85C185.772 368.884 192.972 371.169 195.672 366.472C193.75 360.025 190.463 354.054 186.029 348.955C179.818 337.838 175.845 325.639 174.33 313.031C173.301 308.715 175.872 305.795 178.572 302.241C203.129 306.938 221.128 324.836 240.414 341.973L254.428 344.385C255.328 347.685 256.87 348.447 259.185 346.543C258.639 345.849 257.936 345.292 257.132 344.918C256.328 344.543 255.445 344.36 254.556 344.385C249.671 334.102 239.257 330.549 231.414 324.075C216.5 311.381 199.015 303.257 184.487 289.801C163.144 270.126 140.773 251.72 120.202 231.155C108.934 221.315 99.7569 209.363 93.2028 195.993C91.0171 190.662 90.8887 187.489 95.5171 184.569C114.89 188.183 133.257 195.843 149.387 207.037C167.772 218.207 185.772 230.521 203.386 243.342C209.564 247.468 216.054 251.117 222.8 254.258C235.657 260.986 248.514 266.953 261.37 274.442C277.264 284.019 291.939 295.44 305.084 308.461C306.621 310.231 308.623 311.549 310.869 312.269L313.955 315.443C314.625 317.3 315.893 318.889 317.565 319.967C319.237 321.044 321.22 321.551 323.212 321.409C319.226 317.727 319.483 312.65 314.212 312.015C313.842 312.03 313.474 311.958 313.138 311.803C312.803 311.648 312.51 311.416 312.284 311.127C306.136 299.47 298.813 288.456 290.427 278.25C285.245 271.604 280.479 264.652 276.156 257.432C280.141 256.416 282.97 254.004 287.47 254.893C293.748 263.74 300.804 272.023 308.555 279.646C308.547 281.809 309.361 283.897 310.837 285.496C312.314 287.094 314.344 288.087 316.526 288.278C316.464 286.626 315.998 285.014 315.17 283.578C314.342 282.142 313.176 280.923 311.77 280.027V271.014C318.198 267.968 323.726 273.172 330.412 275.584C329.742 269.92 327.16 264.644 323.083 260.605C310.741 246.675 297.095 233.924 282.327 222.524C267.028 209.83 254.042 195.486 239.642 182.157C238.39 181.265 237.423 180.039 236.853 178.622C236.284 177.205 236.136 175.657 236.428 174.16C246.328 166.29 258.671 169.337 271.399 174.16C294.058 184.031 314.742 197.832 332.469 214.908C336.069 216.177 336.969 211.48 340.826 214.146C348.669 220.886 355.431 228.761 360.882 237.502C364.943 247.06 370.937 255.699 378.496 262.89C378.496 264.54 378.497 266.318 380.039 267.714C381.711 266.698 381.196 264.922 380.811 263.271C382.739 258.448 379.525 253.37 377.982 249.054C376.827 246.406 376.296 243.532 376.43 240.652C376.563 237.771 377.358 234.958 378.754 232.425C356.897 207.037 335.298 181.65 313.312 156.897C297.37 138.744 281.17 120.973 265.099 103.075C257.663 93.8738 251.241 83.916 245.942 73.3709C244.757 71.2894 244.305 68.8789 244.657 66.5165C247.485 60.8042 253.785 63.2156 258.413 65.2466C268.203 68.5842 277.18 73.9025 284.77 80.8606C287.023 83.4893 289.916 85.509 293.177 86.7303C296.438 87.9516 299.96 88.3342 303.412 87.8421C313.411 87.2101 323.449 87.5925 333.369 88.9841C346.226 88.9841 359.083 92.9194 371.94 92.4117C393.864 92.9272 415.671 95.7352 436.995 100.789C437.874 92.9924 440.51 85.489 444.709 78.8292C452.809 80.4794 452.809 80.4794 462.58 91.523C463.338 92.0441 464.159 92.4702 465.023 92.7921C477.454 93.8945 489.355 98.2791 499.479 105.486C501.022 106.375 502.694 107.01 504.365 107.772C504.75 108.969 505.561 109.988 506.648 110.641C507.735 111.295 509.025 111.538 510.279 111.325L511.179 113.483L512.336 112.595L510.408 111.198C510.519 110.476 510.34 109.739 509.907 109.145C509.474 108.552 508.823 108.149 508.094 108.025C502.011 95.9803 493.215 85.472 482.38 77.306C464.501 61.8355 445.508 47.6655 425.552 34.9081C420.173 32.5668 415.675 28.6151 412.696 23.6112C413.724 19.6761 416.295 18.66 420.281 19.0408C433.538 20.3592 446.304 24.705 457.566 31.7347C473.904 40.8138 488.345 52.8759 500.122 67.2781C505.986 74.6512 510.909 82.7083 514.779 91.2689C520.687 101.675 525.019 112.88 527.636 124.527C527.786 125.695 528.185 126.82 528.805 127.826C529.425 128.832 530.254 129.697 531.236 130.366C538.8 137.621 546.739 144.484 555.021 150.93C559.521 144.71 563.378 138.237 567.878 133.159C569.433 131.401 570.29 129.146 570.29 126.812C570.29 124.478 569.433 122.223 567.878 120.465C561.404 109.636 555.939 98.2492 551.55 86.4452C548.627 79.9939 547.861 72.791 549.364 65.8812C569.549 69.0546 580.478 86.192 594.106 100.663L605.163 92.6658V66.3894C608.248 63.9776 610.82 65.2468 613.648 67.7856C624.622 78.091 631.121 92.1968 631.776 107.136C631.776 115.514 631.776 123.765 631.776 131.255C634.733 133.667 636.533 133.159 637.433 131.255C645.485 120.198 654.949 110.214 665.59 101.551C680.209 85.9332 695.75 71.1828 712.132 57.3765C716.02 53.7787 720.811 51.2702 726.009 50.1099C731.207 48.9496 736.624 49.1793 741.702 50.7754C741.702 53.3142 741.06 55.8535 742.731 58.3922C745.302 56.9959 747.488 55.3453 746.845 51.6641C752.374 41.7629 757.388 31.6084 763.43 22.088C768.315 13.1476 775.387 5.55427 784.002 0C786.041 0.212151 787.968 1.02953 789.529 2.34368C791.089 3.65784 792.21 5.40741 792.744 7.36266C797.551 18.7211 798.674 31.2719 795.958 43.2865C790.744 61.6166 782.954 79.1348 772.816 95.331C771.016 98.5045 768.188 101.044 767.93 105.106C767.593 105.122 767.262 105.204 766.956 105.346C766.65 105.489 766.376 105.69 766.149 105.938C765.922 106.185 765.747 106.475 765.633 106.79C765.52 107.104 765.47 107.438 765.488 107.772C761.888 107.772 759.574 107.771 761.759 112.849C764.845 112.087 767.545 111.453 768.445 108.406C768.582 107.707 768.797 107.026 769.088 106.375C771.157 106.761 773.294 106.601 775.281 105.91C777.267 105.219 779.034 104.021 780.402 102.44C790.749 93.365 802.297 85.7213 814.73 79.7178C835.11 71.6799 856.533 66.5092 878.371 64.358C890.837 64.0785 903 68.1718 912.699 75.9098C913.534 78.0299 913.634 80.3636 912.983 82.5457C912.331 84.7279 910.966 86.6355 909.099 87.9691C897.532 98.2069 883.843 105.83 868.985 110.31L860.371 113.864C858.396 126.139 853.457 137.764 845.972 147.757C842.115 147.757 838.515 148.646 838.772 154.612C842.629 154.612 844.943 154.612 846.357 151.311C850.343 151.311 854.2 151.311 858.057 151.311C873.1 151.311 888.399 152.326 903.699 153.088C912.218 153.75 920.187 157.504 926.07 163.624L930.056 172.256C935.841 177.841 944.584 177.08 950.369 183.681C950.95 185.274 951.101 186.99 950.808 188.659C950.515 190.328 949.788 191.893 948.698 193.201C939.815 203.22 928.612 210.972 916.042 215.796C882.614 228.489 850.086 242.199 815.244 251.719C798.427 256.868 781.234 260.73 763.816 263.271C773.253 268.201 781.195 275.517 786.83 284.47C787.984 287.776 788.207 291.33 787.473 294.752C786.573 294.752 785.93 296.021 785.159 296.021C763.467 293.662 742.168 288.586 721.774 280.915C710.455 275.623 698.259 272.397 685.775 271.395C693.757 277.083 699.7 285.129 702.746 294.371C703.595 295.113 704.602 295.658 705.692 295.966C706.782 296.273 707.928 296.335 709.046 296.148C728.35 296.045 747.57 298.652 766.131 303.891C777.67 306.654 788.909 310.523 799.687 315.443C811.665 321.727 821.369 331.529 827.458 343.496C827.342 344.521 826.867 345.476 826.117 346.194C825.366 346.912 824.385 347.35 823.343 347.432C807.258 347.853 791.217 345.578 775.902 340.704C763.08 336.27 749.628 333.871 736.046 333.595C729.745 332.572 723.318 332.572 717.017 333.595C722.83 337.008 729.171 339.453 735.788 340.831C750.059 343.116 764.331 346.543 778.602 348.066C789.659 349.336 800.587 349.589 811.644 351.24C826.84 354.397 841.693 358.987 856 364.949C868.004 370.103 877.948 379.028 884.285 390.336C881.328 398.079 873.614 398.588 867.185 397.953C856.595 397.961 846.021 397.154 835.558 395.541C829.734 392.956 823.598 391.122 817.301 390.083C804.444 390.083 790.301 387.925 776.673 387.417C760.735 386.883 744.847 385.357 729.103 382.847C699.95 377.193 671.438 368.688 643.991 357.46C634.771 354.313 625.717 350.711 616.862 346.669L570.835 355.936C573.133 361.756 573.625 368.119 572.249 374.216C582.02 372.946 586.263 363.933 595.906 367.36C599.377 372.311 595.906 376.881 597.835 381.577C598.606 382.212 599.377 383.101 600.02 383.228C609.147 383.897 618.142 385.776 626.762 388.813C649.97 398.501 672.185 410.36 693.103 424.229L699.918 429.434C705.798 432.883 710.617 437.849 713.856 443.798C717.095 449.746 718.632 456.454 718.303 463.2C722.417 469.42 729.103 474.37 729.489 482.748C741.317 486.175 751.217 477.416 763.559 484.779C762.056 488.905 759.72 492.687 756.692 495.894C753.665 499.102 750.008 501.669 745.945 503.439C735.661 509.23 724.858 514.075 713.674 517.91C691.818 526.161 669.447 533.396 647.076 540.505C633.179 544.665 619.057 548.055 604.777 550.66C597.39 552.169 590.655 555.893 585.492 561.323C591.781 565.487 598.735 568.576 606.063 570.462C616.348 574.016 626.377 578.84 636.405 583.156C653.721 590.376 672.623 593.085 691.304 591.026C704.161 590.011 717.017 588.234 729.103 586.965C736.545 586.542 743.975 587.982 750.702 591.153C743.617 600.626 734.001 607.967 722.931 612.353C712.06 616.997 700.597 620.158 688.861 621.746C687.447 626.189 690.918 628.22 692.975 630.632C700.117 639.15 706.403 648.332 711.746 658.05C713.656 661.312 714.424 665.104 713.932 668.84C711.026 671.196 707.632 672.896 703.989 673.817C700.346 674.738 696.542 674.859 692.846 674.172C675.866 673.173 659.377 668.167 644.762 659.573C620.508 646.156 595.431 634.244 569.678 623.904L540.621 611.21C539.903 610.849 539.071 610.78 538.303 611.018C537.534 611.255 536.889 611.779 536.507 612.479C543.45 618.953 551.035 625.173 557.849 632.408C571.153 644.125 583.175 657.187 593.72 671.378C603.422 686.658 610.462 703.435 614.548 721.012C615.399 726.118 618.265 730.683 622.519 733.706C636.325 744.849 648.677 757.64 659.29 771.787C661.596 774.95 663.618 778.305 665.333 781.815C666.104 786.004 662.119 786.385 662.89 789.051C652.085 790.891 641.039 790.891 630.234 789.051C621.605 787.981 613.29 785.172 605.806 780.8C582.781 770.706 560.673 758.688 539.721 744.876C539.721 744.876 538.821 744.876 537.664 744.876C535.607 754.778 538.564 765.948 536.636 775.849C536.023 785.338 533.394 794.593 528.922 803.014C520.693 805.679 516.065 799.205 512.336 793.366C512.336 790.828 510.279 789.686 507.193 786.766C508.222 789.939 507.193 791.97 510.279 792.986C510.279 801.364 510.279 809.742 510.279 818.374C509.369 834.941 503.358 850.84 493.051 863.944C488.978 864.328 484.886 863.441 481.351 861.406C477.188 855.46 475.153 848.312 475.566 841.095C475.696 830.702 473.176 820.444 468.237 811.265C462.493 799.843 458.465 787.656 456.28 775.087C456.28 774.452 454.995 773.945 453.709 772.802C447.538 785.496 441.495 798.19 435.324 810.884C430.972 819.5 425.044 827.247 417.839 833.733C415.396 835.891 412.696 835.891 409.096 833.733C408.282 822.435 410.546 811.127 415.653 800.983C418.61 792.986 421.824 785.115 424.395 776.737C425.143 775.101 425.474 773.31 425.362 771.519C425.25 769.727 424.698 767.989 423.753 766.455C421.028 762.399 419.337 757.754 418.822 752.914C418.307 748.074 418.984 743.182 420.795 738.656C423.008 731.638 424.431 724.402 425.038 717.077C421.991 714.517 419.591 711.291 418.029 707.655C416.467 704.019 415.785 700.073 416.038 696.132C416.675 692.571 416.535 688.917 415.626 685.414C414.717 681.912 413.06 678.641 410.767 675.822C409.996 689.531 411.924 704.129 402.024 712.888C397.01 714.284 392.51 711.111 387.625 711.364C384.668 726.343 381.196 741.322 378.625 756.682C378.467 758.901 377.634 761.022 376.235 762.766C374.835 764.51 372.935 765.796 370.782 766.455C365.64 764.551 365.125 760.744 364.868 756.555C365.049 745.021 366.428 733.537 368.982 722.281C369.671 717.611 370.101 712.907 370.268 708.191C374.125 707.175 373.225 704.129 372.068 700.955C370.606 701.369 369.346 702.291 368.519 703.551C367.691 704.811 367.354 706.323 367.568 707.81V707.81ZM394.696 156.897C407.553 166.671 408.71 182.284 416.553 194.978C421.719 195.025 426.827 196.059 431.595 198.025C436.995 201.579 440.852 198.025 446.252 200.437C451.607 206.675 458.797 211.112 466.823 213.13C474.666 215.796 480.966 224.809 490.351 222.778V198.659C476.91 184.931 465.406 169.474 456.152 152.708C442.726 145.852 428.116 141.546 413.081 140.014C399.313 139.206 385.612 137.509 372.068 134.936C362.504 133.059 352.706 132.631 343.012 133.667C343.783 144.33 353.682 147.63 359.597 154.231C363.325 150.169 365.125 144.964 371.296 144.837C377.982 147.122 380.039 154.738 386.339 158.673C388.525 157.277 390.325 155.12 394.696 156.897V156.897ZM910.899 169.591C901.513 163.117 895.47 166.925 888.913 165.528C871.898 162.831 854.576 162.575 837.486 164.767C827.582 165.206 818.06 168.665 810.23 174.668C803.536 179.845 796.394 184.433 788.887 188.377C771.402 197.644 753.402 206.276 735.531 214.908C733.731 215.796 731.803 216.938 734.374 220.619C761.904 214.704 788.714 205.895 814.344 194.343C835.702 184.889 858.03 177.74 880.942 173.017C889.556 171.24 899.199 170.986 910.899 169.844V169.591ZM660.319 294.117C661.791 289.787 662.145 285.162 661.347 280.662C651.062 274.315 639.362 272.665 629.719 266.191C622.646 270.573 616.456 276.211 611.463 282.82C606.063 288.151 597.963 291.071 594.106 300.464C616.348 300.806 638.558 298.677 660.319 294.117V294.117ZM506.036 633.931C503.979 634.693 503.594 636.216 504.365 637.232C514.171 650.083 525.191 661.984 537.278 672.775C538.103 673.727 539.255 674.345 540.513 674.509C541.771 674.673 543.046 674.371 544.093 673.663C533.627 658.506 520.781 645.093 506.036 633.931V633.931ZM555.535 358.602C544.607 359.617 535.607 360.506 529.822 369.138C533.675 371.476 538.164 372.584 542.679 372.311C547.564 368.376 553.093 366.091 556.05 358.602H555.535ZM583.178 192.058C589.992 186.727 591.792 183.046 592.949 170.098C589.477 177.207 579.835 180.253 583.178 192.058ZM576.492 330.04C567.364 322.551 561.964 321.663 558.75 326.994C562.092 328.39 564.407 331.945 568.778 332.199L576.492 330.04ZM591.277 300.083C591.277 300.083 591.277 300.083 591.277 300.718C591.277 301.352 591.92 301.606 592.049 301.479C592.177 301.352 593.206 301.48 592.049 300.21L591.277 300.083ZM326.941 325.471L326.04 324.582C326.04 324.582 325.398 324.583 325.14 325.217L326.426 326.232L326.941 325.471Z" fill="#E9C0E9"></path></svg>